<svg xmlns="http://www.w3.org/2000/svg" viewBox="0 0 964 830" height="830" width="964"><style type="text/css">  
	.st0{opacity:0.1;fill:#FFFFFF;}
	.st1{opacity:0.1;fill:none;stroke:#FFFFFF;stroke-miterlimit:10;}
</style><circle class="st0" cx="14" cy="79" r="4"/><circle class="st0" cx="274" cy="74" r="4"/><circle class="st0" cx="407" cy="15" r="4"/><circle class="st0" cx="534" cy="129" r="4"/><circle class="st0" cx="407" cy="275" r="4"/><circle class="st0" cx="521" cy="249" r="4"/><circle class="st0" cx="586" cy="257" r="4"/><circle class="st0" cx="737" cy="318" r="4"/><circle class="st0" cx="805" cy="420" r="4"/><circle class="st0" cx="390" cy="463" r="4"/><circle class="st0" cx="224" cy="216" r="4"/><circle class="st0" cx="117" cy="241" r="4"/><circle class="st0" cx="56" cy="447" r="4"/><circle class="st0" cx="947" cy="642" r="4"/><circle class="st0" cx="813" cy="768" r="4"/><circle class="st0" cx="653" cy="817" r="4"/><circle class="st0" cx="685" cy="449" r="4"/><circle class="st0" cx="528" cy="594" r="4"/><circle class="st0" cx="418" cy="757" r="4"/><circle class="st0" cx="215" cy="515" r="4"/><circle class="st0" cx="180" cy="693" r="4"/><circle class="st0" cx="87" cy="573" r="4"/><circle class="st0" cx="38" cy="682" r="4"/><polygon class="st1" points="274 74 407 15 534 129 521 249 586 257 737 318 805 420 947 642 813 768 653 817 528 594 418 757 180 693 38 682 87 573 56 448 117 241 14 79 "/><polygon class="st1" points="224 216 407 275 613 358.5 685 449 390 463 215 515 56 448 "/><polyline class="st1" points="14 79 224 216 274 74 407 275 521 249 613 358.5 737 318 685 449 528 594 390 463 215 515 180 693 87 573 215 515 "/><line class="st1" x1="117" y1="241" x2="224" y2="216"/><polyline class="st1" points="407 15 407 275 534 129 705.7 45.7 586 257 613 358.5 390 463 407 275 "/><polyline class="st1" points="813 768 685 449 653 817 "/><polyline class="st1" points="418 757 215 515 407 275 56 448 "/><line class="st1" x1="528" y1="594" x2="215" y2="515"/><line class="st1" x1="418" y1="757" x2="653" y2="817"/><polyline class="st1" points="947 642 685 449 805 420 862.3 175.7 737 318 705.7 45.7 862.3 175.7 "/><circle class="st0" cx="705.7" cy="45.7" r="4"/><circle class="st0" cx="862.3" cy="176.2" r="4"/></svg>