<?xml version="1.0" standalone="no"?>
<!DOCTYPE svg PUBLIC "-//W3C//DTD SVG 1.1//EN" "http://www.w3.org/Graphics/SVG/1.1/DTD/svg11.dtd" >
<svg xmlns="http://www.w3.org/2000/svg">
<metadata>
This is a custom SVG webfont generated by Typotheque.
</metadata>
<defs>
<font id="typotheque_webfonts_service" horiz-adv-x="500" >
<font-face units-per-em="1000" ascent="760" descent="-240" />
<missing-glyph horiz-adv-x="236" />
<glyph unicode="[[" horiz-adv-x="472" d="M448 717v-42h-133v-845l133 1v-42h-365v928h365zM155 675v-844h88v844h-88z" />
<glyph unicode="]]" horiz-adv-x="472" d="M389 717v-928h-365v42l133 -1v845h-133v42h365zM229 675v-844h88v844h-88z" />
<glyph unicode="&#x28;&#x28;" horiz-adv-x="439" d="M256 719l27 -31q-42 -47 -76.5 -99.5t-59 -109.5t-38 -117t-13.5 -120t14 -118t39 -113.5t59 -106t74 -95.5l-26 -29q-56 43 -97 96t-68.5 112t-41 122t-13.5 128q0 66 14 131.5t41.5 127.5t69 118.5t95.5 103.5zM396 719l27 -31q-42 -47 -76.5 -99.5t-59 -109.5 t-38 -117t-13.5 -120t14 -118t39 -113.5t59 -106t74 -95.5l-26 -29q-56 43 -97 96t-68.5 112t-41 122t-13.5 128q0 66 14 131.5t41.5 127.5t69 118.5t95.5 103.5z" />
<glyph unicode="&#x29;&#x29;" horiz-adv-x="439" d="M183 719q54 -47 95.5 -103.5t69 -118.5t41.5 -127.5t14 -131.5q0 -65 -13.5 -128t-41 -122t-69 -112t-96.5 -96l-26 29q40 45 74 95.5t59 106t39 113.5t14 118t-13.5 120t-38 117t-59 109.5t-76.5 99.5zM43 719q54 -47 95.5 -103.5t69 -118.5t41.5 -127.5t14 -131.5 q0 -65 -13.5 -128t-41 -122t-69 -112t-96.5 -96l-26 29q40 45 74 95.5t59 106t39 113.5t14 118t-13.5 120t-38 117t-59 109.5t-76.5 99.5z" />
<glyph unicode="&#xfb01;" horiz-adv-x="604" d="M580 0h-39q-17 0 -36 0.5t-33 0.5h-30t-36.5 -0.5t-35 -0.5h-24.5q-1 14 -1 19t1 17l71 3q3 52 3.5 100.5t0.5 84.5v48.5v59t-0.5 59t-1.5 48.5l-49 7h-179v-79v-66t0.5 -93l1 -95t1.5 -73l107 -4q1 -11 1 -17.5t-1 -18.5h-59q-24 0 -49.5 0.5t-39.5 0.5h-28.5t-33 -0.5 t-31.5 -0.5h-23q-1 14 -1 19t1 17l61 3q1 17 1.5 44.5t1 59.5l1 66t0.5 64.5v54.5v36v82h-75q-1 12 -1 18t1 18l75 12v8q0 66 23.5 109t56.5 69t68.5 36.5t60.5 10.5q32 0 57 -6t44.5 -15t33 -20.5t21.5 -21.5q-24 -31 -55 -58q-19 18 -39 32q-17 12 -40 22.5t-46 10.5 q-48 0 -72 -40t-24 -112v-31h178q35 4 71 6.5t71 4.5q-1 -63 -1 -137v-137v-87.5t2 -98.5l68 -3q1 -11 1 -17.5t-1 -18.5z" />
<glyph unicode="&#xfb02;" horiz-adv-x="598" d="M575 0h-39q-17 0 -36 0.5t-33 0.5h-29.5t-35 -0.5t-33 -0.5h-23.5q-1 14 -1 19t1 17l66 3q1 26 2 70t1.5 90.5t0.5 86.5v58v49v71.5t-0.5 78t-0.5 69.5q-6 6 -18.5 16t-29 19.5t-37 16.5t-43.5 7q-48 0 -72 -40t-24 -112v-31h140q1 -14 1 -21t-1 -21h-140v-79v-66 t0.5 -93l1 -95t1.5 -73l107 -4q1 -11 1 -17.5t-1 -18.5h-59q-24 0 -49.5 0.5t-39.5 0.5h-28.5t-33 -0.5t-31.5 -0.5h-23q-1 14 -1 19t1 17l61 3q1 17 1.5 44.5t1 59.5l1 66t0.5 64.5v54.5v36v82h-75q-1 12 -1 18t1 18l75 12v8q0 65 22.5 108t55 69t68.5 37t63 11 q23 0 42.5 -3.5t36.5 -8.5q59 6 116 9q0 -32 -0.5 -83t-0.5 -106.5v-107v-82.5v-61.5v-86t0.5 -88.5t1.5 -70l68 -3q1 -11 1 -17.5t-1 -18.5z" />
<glyph unicode="fh" horiz-adv-x="908" d="M662 0q-1 14 -1 19t1 17l66 3q1 26 1.5 62.5l1 74t0.5 70.5v51q0 31 -2.5 56.5t-13 44.5t-31.5 29.5t-58 10.5q-10 0 -23.5 -1.5t-29.5 -4.5t-32 -7.5t-31 -11.5v-68v-61.5v-86t0.5 -88.5t1.5 -70l68 -3q1 -11 1 -17.5t-1 -18.5h-39q-17 0 -36 0.5t-33 0.5h-29.5 t-35 -0.5t-33 -0.5h-23.5q-1 14 -1 19t1 17l66 3q1 26 2 70t1.5 90.5t0.5 86.5v58v48v69.5t-0.5 76.5t-0.5 69l-13 12.5t-28.5 22t-41 20.5t-50.5 9q-48 0 -72 -40t-24 -112v-31h140q1 -14 1 -21t-1 -21h-140v-79v-66t0.5 -93l1 -95t1.5 -73l107 -4q1 -11 1 -17.5t-1 -18.5 h-59q-24 0 -49.5 0.5t-39.5 0.5h-28.5t-33 -0.5t-31.5 -0.5h-23q-1 14 -1 19t1 17l61 3q1 17 1.5 44.5t1 59.5l1 66t0.5 64.5v54.5v36v82h-75q-1 12 -1 18t1 18l75 12v8q0 65 23.5 108t56.5 69t68.5 37t60.5 11q23 0 43 -3.5t37 -8.5q61 6 120 9q0 -24 -0.5 -58.5t-0.5 -73 v-79v-77.5q12 12 29 26t38 25t44 18.5t47 7.5q72 0 113 -43.5t41 -130.5q0 -21 -0.5 -60.5t-0.5 -83.5t-0.5 -86.5t-0.5 -69.5l71 -3q1 -11 1 -17.5t-1 -18.5h-39q-17 0 -36 0.5t-33 0.5h-29.5t-35 -0.5t-33 -0.5h-23.5z" />
<glyph unicode="fb" horiz-adv-x="865" d="M409 25q1 80 1 159.5v159.5v50.5v73.5t-0.5 80t-0.5 70q-8 7 -19.5 16t-27.5 17t-35 14t-40 6q-48 0 -72 -40t-24 -112v-31h140q1 -14 1 -21t-1 -21h-140v-79v-66t0.5 -93l1 -95t1.5 -73l107 -4q1 -11 1 -17.5t-1 -18.5h-59q-24 0 -49.5 0.5t-39.5 0.5h-28.5t-33 -0.5 t-31.5 -0.5h-23q-1 14 -1 19t1 17l61 3q1 17 1.5 44.5t1 59.5l1 66t0.5 64.5v54.5v36v82h-75q-1 12 -1 18t1 18l75 12v8q0 65 23.5 108.5t56.5 69.5t68.5 36.5t60.5 10.5q43 0 76 -11q29 3 56.5 5l56.5 4q0 -24 -0.5 -58t-1 -72.5t-0.5 -79v-76.5q10 12 23.5 25.5t31.5 24 t39.5 17.5t47.5 7q38 0 71.5 -17t59 -48.5t40.5 -75.5t15 -97q0 -71 -20.5 -124.5t-56 -89t-82.5 -53.5t-99 -18t-94.5 10.5t-64.5 24.5zM499 345v-56t-0.5 -74.5t-0.5 -78.5v-67q16 -18 39 -27.5t44 -9.5q32 0 59.5 12.5t48 38t32.5 63.5t12 89q0 43 -6.5 81t-22.5 65.5 t-43 43.5t-67 16q-25 0 -48.5 -8t-46.5 -21v-67z" />
<glyph unicode="fj" horiz-adv-x="563" d="M484 9q0 -53 -16.5 -94.5t-44.5 -74t-64 -57.5t-75 -44q-7 8 -11 12t-9 14q27 19 50.5 43.5t41 55t28 67t10.5 78.5q0 26 0.5 56l1 59.5t1 55.5t0.5 44v48.5v58t-0.5 58t-1.5 48.5l-80 9h-124v-79v-66t0.5 -93l1 -95t1.5 -73l107 -4q1 -11 1 -17.5t-1 -18.5h-59 q-24 0 -49.5 0.5t-39.5 0.5h-28.5t-33 -0.5t-31.5 -0.5h-23q-1 14 -1 19t1 17l61 3q1 17 1.5 44.5t1 59.5l1 66t0.5 64.5v54.5v36v82h-75q-1 12 -1 18t1 18l75 12v8q0 66 23.5 109.5t56.5 69t68.5 36t60.5 10.5q32 0 57 -6t44.5 -15t33 -20.5t21.5 -21.5q-24 -31 -55 -58 q-18 18 -39 32q-18 12 -41 22.5t-46 10.5q-48 0 -71.5 -40t-23.5 -112v-31h158q35 3 71.5 5t66.5 4q-1 -63 -1 -136v-136v-47.5v-55t-0.5 -57.5t-1.5 -56z" />
<glyph unicode="fk" horiz-adv-x="866" d="M572 0h-37q-16 0 -34.5 0.5t-32.5 0.5h-29.5t-35 -0.5t-33 -0.5h-23.5q-1 14 -1 19t1 17l66 3q1 26 2 70t1.5 90.5t0.5 86.5v58v49v71t-0.5 77.5t-0.5 69.5q-6 6 -17.5 16t-28.5 19.5t-38 17t-45 7.5q-48 0 -72 -40t-24 -112v-31h140q1 -14 1 -21t-1 -21h-140v-79v-66 t0.5 -93l1 -95t1.5 -73l107 -4q1 -11 1 -17.5t-1 -18.5h-59q-24 0 -49.5 0.5t-39.5 0.5h-28.5t-33 -0.5t-31.5 -0.5h-23q-1 14 -1 19t1 17l61 3q1 17 1.5 44.5t1 59.5l1 66t0.5 64.5v54.5v36v82h-75q-1 12 -1 18t1 18l75 12v8q0 66 23.5 109t56.5 69t68.5 36.5t60.5 10.5 q23 0 43 -3.5t37 -8.5q29 3 57 5t59 4q0 -32 -0.5 -83t-0.5 -106.5v-107v-82.5v-61.5v-86t0.5 -88.5t1.5 -70l64 -3q1 -11 1 -17.5t-1 -18.5zM712 39l-192 216l157 197l-77 11q-1 12 -1 17t1 19h24.5t35 -0.5t36.5 -0.5h30h69q19 0 39 1q1 -12 1 -18.5t-1 -17.5l-90 -11 l-140 -169l225 -245l45 -2q1 -11 1 -17.5t-1 -18.5h-34q-15 0 -32.5 0.5t-31.5 0.5h-30t-36.5 -0.5t-35 -0.5h-24.5q-1 14 -1 19t1 17z" />
<glyph unicode="&#xfb00;" horiz-adv-x="658" d="M37 0q-1 14 -1 19t1 17l61 3q1 26 2 70t1.5 90.5t0.5 86.5v58v102h-75q-1 12 -1 18t1 18l75 12v8q0 57 25 97.5t60 67t72 38.5t62 12q65 0 104 -15.5t60 -34.5q35 34 75 47t68 13q32 0 57 -6t44.5 -15t33 -20.5t21.5 -21.5q-24 -31 -55 -58q-19 18 -40 32 q-18 12 -41 22.5t-46 10.5q-48 0 -71 -40t-23 -112v-31h122q1 -14 1 -21t-1 -21h-122v-99v-63t0.5 -86l1 -88t1.5 -70l107 -4q1 -11 1 -17.5t-1 -18.5h-59q-24 0 -49.5 0.5t-39.5 0.5h-28.5t-33 -0.5t-31.5 -0.5h-23q-1 14 -1 19t1 17l61 3q1 26 2 70t1.5 90.5t0.5 86.5v58 v102h-228v-99v-63t0.5 -86l1 -88t1.5 -70l107 -4q1 -11 1 -17.5t-1 -18.5h-59q-24 0 -49.5 0.5t-39.5 0.5h-28.5t-33 -0.5t-31.5 -0.5h-23zM191 488h185l43 6v8q0 32 5 53t14 44q-6 9 -19.5 20t-31 21t-38 16.5t-40.5 6.5q-24 0 -45 -8t-37.5 -25.5t-26 -43.5t-9.5 -62v-36z " />
<glyph unicode="&#xfb03;" horiz-adv-x="921" d="M37 0q-1 14 -1 19t1 17l61 3q1 26 2 70t1.5 90.5t0.5 86.5v58v102h-75q-1 12 -1 18t1 18l75 12v8q0 41 12.5 73t32.5 56t45 40.5t50.5 26.5t49 14.5t39.5 4.5q54 0 93.5 -15.5t60.5 -34.5q35 34 75 47t68 13q32 0 57 -6t44.5 -15t33 -20.5t21.5 -21.5q-24 -31 -55 -58 q-19 18 -40 32q-18 12 -41 22.5t-46 10.5q-48 0 -71 -40t-23 -112v-31h178q35 4 71 6.5t71 4.5q-1 -63 -1 -137v-137v-87.5t2 -98.5l68 -3q1 -11 1 -17.5t-1 -18.5h-39q-17 0 -36 0.5t-33 0.5h-30t-36.5 -0.5t-35 -0.5h-24.5q-1 14 -1 19t1 17l71 3q3 52 3.5 100.5t0.5 84.5 v48.5v59t-0.5 59t-1.5 48.5l-49 7h-179v-99v-63t0.5 -86l1 -88t1.5 -70l107 -4q1 -11 1 -17.5t-1 -18.5h-59q-24 0 -49.5 0.5t-39.5 0.5h-28.5t-33 -0.5t-31.5 -0.5h-23q-1 14 -1 19t1 17l61 3q1 26 2 70t1.5 90.5t0.5 86.5v58v102h-228v-99v-63t0.5 -86l1 -88t1.5 -70 l107 -4q1 -11 1 -17.5t-1 -18.5h-59q-24 0 -49.5 0.5t-39.5 0.5h-28.5t-33 -0.5t-31.5 -0.5h-23zM191 488h185l43 6v8q0 32 5 53t14 44q-6 9 -19.5 20t-31 21t-38 16.5t-40.5 6.5q-24 0 -45 -8t-37.5 -25.5t-26 -43.5t-9.5 -62v-36z" />
<glyph unicode="&#xfb04;" horiz-adv-x="915" d="M892 0h-39q-17 0 -36 0.5t-33 0.5h-29.5t-35 -0.5t-33 -0.5h-23.5q-1 14 -1 19t1 17l66 3q1 26 2 70t1.5 90.5t0.5 86.5v58v48.5v70.5t-0.5 77t-0.5 69q-6 4 -19 14.5t-31 21t-38.5 18.5t-41.5 8q-48 0 -71 -40t-23 -112v-31h122q1 -14 1 -21t-1 -21h-122v-99v-63 t0.5 -86l1 -88t1.5 -70l107 -4q1 -11 1 -17.5t-1 -18.5h-59q-24 0 -49.5 0.5t-39.5 0.5h-28.5t-33 -0.5t-31.5 -0.5h-23q-1 14 -1 19t1 17l61 3q1 26 2 70t1.5 90.5t0.5 86.5v58v102h-228v-99v-63t0.5 -86l1 -88t1.5 -70l107 -4q1 -11 1 -17.5t-1 -18.5h-59q-24 0 -49.5 0.5 t-39.5 0.5h-28.5t-33 -0.5t-31.5 -0.5h-23q-1 14 -1 19t1 17l61 3q1 26 2 70t1.5 90.5t0.5 86.5v58v102h-75q-1 12 -1 18t1 18l75 12v8q0 54 24.5 94.5t59 67.5t72 40t63.5 13q34 0 58.5 -4t43 -10.5t33.5 -16t29 -19.5q35 34 75 47t68 13q23 0 42.5 -3.5t36.5 -8.5 q59 6 116 9q0 -32 -0.5 -83t-0.5 -106.5v-107v-82.5v-61.5v-86t0.5 -88.5t1.5 -70l68 -3q1 -11 1 -17.5t-1 -18.5zM191 488h185l43 6v8q0 32 5 53t14 44q-6 9 -19.5 20t-31 21t-38 16.5t-40.5 6.5q-24 0 -45 -8t-37.5 -25.5t-26 -43.5t-9.5 -62v-36z" />
<glyph unicode="ffj" horiz-adv-x="903" d="M190 488h185l43 6v8q0 32 5 53t14 44q-6 9 -19.5 20t-31 21t-38 16.5t-40.5 6.5q-24 0 -45 -8t-37.5 -25.5t-26 -43.5t-9.5 -62v-36zM824 9q0 -53 -16.5 -94.5t-44.5 -74t-64 -57.5t-75 -44q-8 8 -11.5 12.5t-8.5 13.5q27 19 50.5 43.5t41 55t28 67t10.5 78.5 q0 26 0.5 56l1 59.5t1 55.5t0.5 44v48.5v59t-0.5 59t-1.5 48.5l-49 7h-179v-99v-63t0.5 -86l1 -88t1.5 -70l107 -4q1 -11 1 -17.5t-1 -18.5h-59q-24 0 -49.5 0.5t-39.5 0.5h-28.5t-33 -0.5t-31.5 -0.5h-23q-1 14 -1 19t1 17l61 3q1 26 2 70t1.5 90.5t0.5 86.5v58v102h-228 v-99v-63t0.5 -86l1 -88t1.5 -70l107 -4q1 -11 1 -17.5t-1 -18.5h-59q-24 0 -49.5 0.5t-39.5 0.5h-28.5t-33 -0.5t-31.5 -0.5h-23q-1 14 -1 19t1 17l61 3q1 26 2 70t1.5 90.5t0.5 86.5v58v102h-75q-1 12 -1 18t1 18l75 12v8q0 41 12.5 73t32.5 56t45 40.5t50.5 26.5 t48.5 14.5t40 4.5q54 0 93.5 -15.5t60.5 -34.5q35 34 75 47t68 13q32 0 57 -6t44.5 -15t33 -20.5t21.5 -21.5q-24 -31 -55 -58q-19 18 -40 32q-18 12 -41 22.5t-46 10.5q-48 0 -71 -40t-23 -112v-31h179q39 4 72.5 6.5t68.5 4.5q-1 -63 -1 -137v-137v-47.5v-55t-0.5 -57.5 t-1.5 -56z" />
<glyph unicode="f&#xef;" horiz-adv-x="604" d="M374 640q0 27 15.5 39.5t37.5 12.5q21 0 36.5 -12.5t15.5 -39.5t-15.5 -39.5t-36.5 -12.5q-22 0 -37.5 12.5t-15.5 39.5zM511 640q0 27 15 39.5t37 12.5t37.5 -12.5t15.5 -39.5t-15.5 -39.5t-37.5 -12.5t-37 12.5t-15 39.5zM580 0h-39q-17 0 -36 0.5t-33 0.5h-30 t-36.5 -0.5t-35 -0.5h-24.5q-1 14 -1 19t1 17l71 3q3 52 3.5 100.5t0.5 84.5v48.5v59t-0.5 59t-1.5 48.5l-49 7h-179v-79v-66t0.5 -93l1 -95t1.5 -73l107 -4q1 -11 1 -17.5t-1 -18.5h-59q-24 0 -49.5 0.5t-39.5 0.5h-28.5t-33 -0.5t-31.5 -0.5h-23q-1 14 -1 19t1 17l61 3 q1 17 1.5 44.5t1 59.5l1 66t0.5 64.5v54.5v36v82h-75q-1 12 -1 18t1 18l75 12v38q0 42 14 77.5t39 61t60.5 40t79.5 14.5q26 0 55 -6q-5 -17 -13.5 -34.5t-21.5 -29.5q-13 6 -28.5 11t-29.5 5q-24 0 -37 -12.5t-19.5 -31.5t-8 -40t-1.5 -38v-61h178q35 4 71 6.5t71 4.5 q-1 -63 -1 -137v-137v-87.5t2 -98.5l68 -3q1 -11 1 -17.5t-1 -18.5z" />
<glyph unicode=" "  horiz-adv-x="236" />
<glyph unicode="&#x09;" horiz-adv-x="236" />
<glyph unicode="&#xa0;" horiz-adv-x="236" />
<glyph unicode="A" horiz-adv-x="641" d="M186 239l-65 -188l112 -13q1 -12 1 -18t-1 -20h-52q-22 0 -45 0.5t-37 0.5h-27t-30 -0.5t-28.5 -0.5h-21.5q-1 14 -1 20t1 18l68 11l229 618h67l226 -626l63 -3q1 -12 1 -18t-1 -20h-42q-17 0 -37 0.5t-34 0.5h-33.5t-44 -0.5t-42.5 -0.5h-28q-1 14 -1 20t1 18l98 4 l-72 198h-58h-53.5h-54t-58.5 -1zM196 277q26 -1 49 -1.5t46.5 -0.5t49.5 0.5t57 0.5l-100 281z" />
<glyph unicode="B" horiz-adv-x="620" d="M320 664q45 0 84 -8.5t68.5 -27t46.5 -47t17 -68.5q0 -36 -15 -63t-36 -46t-42.5 -30.5t-34.5 -15.5q16 -3 45.5 -11t57.5 -27t49 -49.5t21 -78.5q0 -91 -68 -142.5t-191 -51.5q-12 0 -46 1t-102 2h-32t-41 -0.5t-39 -0.5h-26q-1 14 -1 20t1 18l89 3q1 26 2 69t1.5 88 t0.5 84v57v59.5v82.5t-0.5 82.5t-1.5 59.5l-89 3q-1 12 -1 18t1 20h26.5t40 -0.5t42 -0.5h32.5q41 0 75 0.5t66 0.5zM310 44q81 0 124 34t43 101q0 30 -9 56.5t-29.5 46t-54.5 30.5t-84 11h-45l-31 -1v-62v-76.5t0.5 -76.5t1.5 -61q21 -2 42 -2h42zM227 619 q-1 -25 -1.5 -58.5l-1 -69t-0.5 -68v-56.5l30 -1h42q28 0 53.5 7t44.5 22.5t30 39.5t11 58q0 69 -37.5 97.5t-105.5 28.5h-65z" />
<glyph unicode="C" horiz-adv-x="666" d="M535 581q-2 17 -7 24.5t-19 11.5q-20 5 -46 8t-61 3q-49 0 -95.5 -16t-82.5 -51t-57.5 -89.5t-21.5 -132.5q0 -81 23.5 -138t60 -93.5t80.5 -53t84 -16.5q32 0 60.5 2t53.5 7q14 3 21 8t9 22l18 127q33 2 66 0q0 -8 -1.5 -34.5t-4 -57.5t-4 -59t-1.5 -40l-19 1 q-18 -1 -42 -5.5t-50.5 -9t-53.5 -8t-51 -3.5q-80 0 -144.5 23t-110.5 66.5t-71 104.5t-25 138q0 81 25.5 147t73 112.5t114 72t148.5 25.5q23 0 48.5 -3t50 -7t46.5 -8t40 -5l21 1v-37.5t0.5 -52.5t0.5 -50.5v-31.5q-33 -2 -66 0z" />
<glyph unicode="D" horiz-adv-x="761" d="M332 -6q-30 0 -71.5 3t-87.5 4h-32t-41 -0.5t-39 -0.5h-26q-1 14 -1 20t1 18l91 3q1 26 2 69t1.5 88t0.5 84v57v59.5v82.5t-0.5 82.5t-1.5 59.5l-91 3q-1 12 -1 18t1 20h26.5t40 -0.5t42 -0.5h32.5h73.5t74.5 1q197 0 294 -81.5t97 -238.5q0 -71 -21.5 -134.5t-68 -111.5 t-119.5 -76t-176 -28zM320 41q79 -1 135 19t91.5 58t52 92t16.5 122q0 80 -22.5 135t-62 88.5t-93.5 48.5t-117 15h-92q0 -2 -0.5 -16.5t-0.5 -35v-44v-44.5v-35.5v-16.5v-201q0 -45 0.5 -90t0.5 -90z" />
<glyph unicode="E" horiz-adv-x="604" d="M486 0h-170h-57q-23 0 -47.5 0.5t-38.5 0.5h-32t-41 -0.5t-39 -0.5h-26q-1 14 -1 20t1 18l89 3q1 26 2 69t1.5 88t0.5 84v57v59.5v82.5t-0.5 82.5t-1.5 59.5l-89 3q-1 12 -1 18t1 20h26.5t40 -0.5t42 -0.5h32.5h288l72 3v-35.5t0.5 -48.5t0.5 -47v-30q-14 -1 -32.5 -1 t-30.5 1l-9 89q-2 23 -26 23l-215 2q-1 -27 -1.5 -61l-1 -68.5t-0.5 -67.5v-57q77 -1 154 0l17 91q14 1 22.5 1t22.5 -1q-1 -57 -1 -122.5t1 -122.5q-14 -1 -22.5 -1t-22.5 1l-17 111q-41 1 -76.5 1t-77.5 -1v-60.5v-76t0.5 -76.5t1.5 -63h236q25 0 26 26l9 106q12 1 30.5 1 t32.5 -1v-33t-0.5 -53.5t-0.5 -55v-38.5z" />
<glyph unicode="F" horiz-adv-x="570" d="M465 663l74 3v-35.5t0.5 -48.5t0.5 -47v-30q-14 -1 -32.5 -1t-30.5 1l-9 88q-2 14 -7.5 19t-18.5 5l-215 2q-1 -30 -1.5 -67l-1 -74.5t-0.5 -71v-55.5q76 -1 152 0l17 91q14 1 23.5 1t23.5 -1q-1 -57 -1 -122.5t1 -122.5q-14 -1 -23.5 -1t-23.5 1l-17 110q-40 1 -75 1 t-77 -1v-64.5v-73t0.5 -70.5t1.5 -56l141 -5q1 -12 1 -18t-1 -20h-82q-32 0 -64.5 0.5t-46.5 0.5h-32t-41 -0.5t-39 -0.5h-26q-1 14 -1 20t1 18l89 3q1 26 2 69t1.5 88t0.5 84v57v59.5v82.5t-0.5 82.5t-1.5 59.5l-89 3q-1 12 -1 18t1 20h26.5t40 -0.5t42 -0.5h32.5h286z" />
<glyph unicode="G" horiz-adv-x="717" d="M554 575q-2 23 -11 31.5t-29 13.5q-22 5 -48.5 6.5t-63.5 1.5q-49 0 -95.5 -16t-82.5 -51t-57.5 -89.5t-21.5 -132.5q0 -81 23.5 -138t60 -93.5t80.5 -53t84 -16.5q43 0 78 4.5t61 15.5v54.5t-0.5 58.5t-1 54.5t-0.5 42.5l-121 4q-1 12 -1 18t1 20h31.5t50.5 -0.5 t52 -0.5h37h70q20 0 40 1q1 -14 1 -20t-1 -18l-62 -3q-1 -30 -1.5 -65l-1 -69.5t-0.5 -66v-52.5l-68 -1l-84 -17.5t-79 -9.5q-80 0 -144.5 23t-110.5 66.5t-71 104.5t-25 138q0 81 25.5 147t73 112.5t114 72t148.5 25.5q23 0 50.5 -3t55 -7t52 -8t42.5 -5l21 1v-37.5 t0.5 -52.5t0.5 -50.5v-31.5q-33 -2 -66 0z" />
<glyph unicode="H" horiz-adv-x="768" d="M642 623q-1 -30 -1.5 -69.5l-1 -80t-0.5 -76.5v-57v-60.5v-83.5t0.5 -86t1.5 -69l89 -3q1 -12 1 -18t-1 -20h-57q-23 0 -47.5 0.5t-38.5 0.5h-32t-41 -0.5t-39 -0.5h-26q-1 14 -1 20t1 18l91 3q1 24 2 62.5t1.5 79.5t0.5 78.5v60.5q-85 1 -161 1t-159 -1v-63v-78 t0.5 -77.5t1.5 -62.5l91 -3q1 -12 1 -18t-1 -20h-57q-23 0 -47.5 0.5t-38.5 0.5h-32t-41 -0.5t-39 -0.5h-26q-1 14 -1 20t1 18l89 3q1 26 2 69t1.5 88t0.5 84v57v59.5v82.5t-0.5 82.5t-1.5 59.5l-89 3q-1 12 -1 18t1 20h26.5t40 -0.5t42 -0.5h32.5h85q26 0 55 1q1 -14 1 -20 t-1 -18l-92 -3q-1 -27 -1.5 -61.5l-1 -70t-0.5 -68.5v-58q160 -1 320 0v62v74.5t-0.5 70.5t-1.5 51l-91 3q-1 12 -1 18t1 20h26.5t40 -0.5t42 -0.5h32.5h85q26 0 55 1q1 -14 1 -20t-1 -18z" />
<glyph unicode="I" horiz-adv-x="355" d="M228 623q-1 -30 -1.5 -69.5l-1 -80t-0.5 -76.5v-57v-60.5v-83.5t0.5 -86t1.5 -69l90 -3q1 -12 1 -18t-1 -20h-57q-23 0 -47.5 0.5t-38.5 0.5h-32t-41 -0.5t-39 -0.5h-26q-1 14 -1 20t1 18l90 3q1 26 2 69t1.5 88t0.5 84v57v59.5v82.5t-0.5 82.5t-1.5 59.5l-90 3 q-1 12 -1 18t1 20h26.5t40 -0.5t42 -0.5h32.5h85q26 0 55 1q1 -14 1 -20t-1 -18z" />
<glyph unicode="J" horiz-adv-x="348" d="M227 71q0 -53 -18 -94.5t-47 -74t-66.5 -57.5t-76.5 -44q-7 7 -10.5 11.5t-8.5 15.5q27 19 50.5 42.5t41.5 53t28.5 66t10.5 81.5q1 26 1 66t-0.5 82t-1 80t-0.5 60v56.5v75.5t-0.5 75.5t-1.5 56.5l-112 3q-1 12 -1 18t1 20h30.5t48.5 -0.5t50 -0.5h36h85q26 0 55 1 q1 -14 1 -20t-1 -18l-92 -3q-1 -30 -1.5 -66.5l-1 -73t-0.5 -69.5v-54v-59v-80t0.5 -82.5t0.5 -67.5z" />
<glyph unicode="K" horiz-adv-x="710" d="M36 0q-1 14 -1 20t1 18l89 3q1 26 2 69t1.5 88t0.5 84v57v59.5v82.5t-0.5 82.5t-1.5 59.5l-89 3q-1 12 -1 18t1 20h26.5t40 -0.5t42 -0.5h32.5h75q22 0 45 1q1 -14 1 -20t-1 -18l-72 -3q-1 -29 -1.5 -69.5l-1 -81.5t-0.5 -78v-59v-60v-82t0.5 -84t1.5 -68l91 -3 q1 -12 1 -18t-1 -20h-57q-23 0 -47.5 0.5t-38.5 0.5h-32t-41 -0.5t-39 -0.5h-26zM426 0q-1 14 -1 20t1 18l73 3l-265 295l265 275l-88 15q-1 12 -1 18t1 20h25t36.5 -0.5t38 -0.5h30.5h81q25 0 52 1q1 -14 1 -20t-1 -18l-102 -15l-242 -245l67 -73.5l83 -91.5l83.5 -90 t68.5 -70l84 -3q1 -12 1 -18t-1 -20h-57q-23 0 -47.5 0.5t-38.5 0.5h-33.5t-44 -0.5t-42 -0.5h-27.5z" />
<glyph unicode="L" horiz-adv-x="572" d="M483 198q12 1 28 1t30 -1v-35.5t-0.5 -59.5t-0.5 -61.5v-41.5h-222h-57q-23 0 -47.5 0.5t-38.5 0.5h-32t-41 -0.5t-39 -0.5h-26q-1 14 -1 20t1 18l89 3q1 26 2 69t1.5 88t0.5 84v57v59.5v82t-0.5 82t-1.5 59.5l-89 4q-1 12 -1 18t1 20h26.5t40 -0.5t42 -0.5h32.5h85 q26 0 55 1q1 -14 1 -20t-1 -18l-92 -4q-1 -30 -1.5 -69.5l-1 -79.5t-0.5 -75.5v-56.5v-59.5v-81.5t0.5 -85t1.5 -69h208q17 0 25.5 9t10.5 23z" />
<glyph unicode="M" horiz-adv-x="941" d="M816 619q-2 -72 -2 -149.5v-149.5q0 -70 0.5 -139.5t1.5 -139.5l83 -3q1 -12 1 -18t-1 -20h-42q-17 0 -37 0.5t-34 0.5h-35t-47 -0.5t-45 -0.5h-29q-1 14 -1 20t1 18l82 3l11 537l-255 -588h-42l-242 538q-1 -62 -1 -125.5v-125.5v-112.5t1 -111.5l113 -15q1 -12 1 -18 t-1 -20h-42q-17 0 -37 0.5t-34 0.5h-33t-43 -0.5t-41.5 -0.5h-27.5q-1 14 -1 20t1 18l88 15l10 557l-103 14v40q48 -1 98.5 -1t98.5 1l242 -540l235 540q52 -1 96.5 -1t96.5 1v-41z" />
<glyph unicode="N" horiz-adv-x="754" d="M634 311v-164.5t1 -163.5h-30l-425 532q-1 -60 0 -122.5t1 -122.5v-215l131 -17q1 -12 1 -18t-1 -20h-67q-27 0 -54.5 0.5t-41.5 0.5q-24 0 -52.5 -0.5t-45.5 -0.5q-1 14 -1 20t1 18l76 17l5 550l-97 20v39l148 -1l406 -501q-4 63 -5 124t-1 120q0 52 -0.5 101.5 t-0.5 100.5l-128 18q-1 12 -1 18t1 20q30 -1 57 -1h86h29t34 0.5t32 0.5h23q1 -14 1 -20t-1 -18l-81 -14q-1 -77 -0.5 -151t0.5 -150z" />
<glyph unicode="O" horiz-adv-x="755" d="M381 677q65 0 125 -22t105.5 -64.5t73 -104.5t27.5 -141q0 -83 -25.5 -149t-70.5 -112.5t-107 -71t-136 -24.5q-62 0 -121.5 22t-106 65t-75 106.5t-28.5 147.5q0 74 26 137.5t71.5 110.5t107.5 73.5t134 26.5zM386 38q51 0 92.5 19.5t70.5 57t45 92t16 124.5 q0 69 -18.5 123.5t-50.5 92t-75.5 57.5t-93.5 20q-44 0 -85 -17.5t-72.5 -52.5t-51 -88t-19.5 -125q0 -69 19 -125t52 -95.5t77 -61t94 -21.5z" />
<glyph unicode="P" horiz-adv-x="569" d="M308 664q65 0 107.5 -17t67.5 -45t35.5 -64t11.5 -73q-1 -47 -16.5 -80t-39.5 -55.5t-52 -36t-55 -20.5t-49 -9t-33 -2h-29t-32 2v-101q0 -42 0.5 -72t1.5 -48l139 -5q1 -12 1 -18t-1 -20h-81q-32 0 -64 0.5t-46 0.5h-32t-41 -0.5t-39 -0.5h-26q-1 14 -1 20t1 18l89 3 q1 26 2 69t1.5 88t0.5 84v57v59.5v82.5t-0.5 82.5t-1.5 59.5l-89 3q-1 12 -1 18t1 20h26.5t40 -0.5t42 -0.5h32.5q35 0 66.5 0.5t62.5 0.5zM224 307q16 -2 27 -3t31 -1q44 0 72.5 14.5t45 36.5t23 49t6.5 52q0 35 -8 65t-25.5 52t-44.5 34.5t-64 12.5h-63v-312z" />
<glyph unicode="Q" horiz-adv-x="755" d="M381 677q65 0 125 -22t105.5 -64.5t73 -104.5t27.5 -141q0 -69 -18 -127t-50 -102t-77.5 -74t-100.5 -43q78 -40 165 -67.5t174 -27.5q17 0 33.5 1t34.5 3q1 -17 0 -29t-6 -29q-25 -4 -48 -6t-46 -2q-54 0 -103 10.5t-95 30t-90 46.5t-88 60q-6 0 -12 -0.5t-12 -0.5 q-62 0 -121.5 22t-106 65t-75 106.5t-28.5 147.5q0 74 26 137.5t71.5 110.5t107.5 73.5t134 26.5zM386 38q51 0 92.5 19.5t70.5 57t45 92t16 124.5q0 69 -18.5 123.5t-50.5 92t-75.5 57.5t-93.5 20q-44 0 -85 -17.5t-72.5 -52.5t-51 -88t-19.5 -125q0 -69 19 -125t52 -95.5 t77 -61t94 -21.5z" />
<glyph unicode="R" horiz-adv-x="636" d="M226 43l101 -5q1 -12 1 -18t-1 -20h-62q-25 0 -51 0.5t-40 0.5h-32t-41 -0.5t-39 -0.5h-26q-1 14 -1 20t1 18l89 3q1 26 2 69t1.5 88t0.5 84v57v59.5v82.5t-0.5 82.5t-1.5 59.5l-89 3q-1 12 -1 18t1 20h26.5t40 -0.5t42 -0.5h32.5h133q62 0 104.5 -15t69 -40t38 -57 t11.5 -66q0 -53 -20.5 -86.5t-44.5 -53.5q-29 -23 -65 -34l37.5 -58.5l27.5 -41.5t23.5 -33.5l25.5 -34.5q14 -20 31.5 -41t36.5 -38.5t39 -29.5t41 -14q2 -20 -4 -37q-64 -5 -109.5 10.5t-75.5 49.5q-21 23 -38 46l-35.5 50.5l-40.5 62l-52 82.5l-88 2v-59v-67t0.5 -65 t1.5 -52zM224 328l58 -3q41 0 70 11t47 30.5t26.5 47.5t8.5 61q0 30 -8.5 56t-25.5 45.5t-44.5 31t-64.5 11.5h-67v-291z" />
<glyph unicode="S" horiz-adv-x="519" d="M246 37q55 0 90.5 28.5t35.5 76.5q0 24 -6 43.5t-22 38.5t-42.5 38.5t-66.5 42.5q-43 25 -76.5 47.5t-56 46t-34 50t-11.5 58.5q0 38 17 69.5t46 54t67.5 34.5t82.5 12q26 0 45.5 -2.5t36.5 -6l33 -7t36 -5.5l28 2v-38.5t0.5 -55t0.5 -53v-32.5h-61l-12 90q-3 24 -8 32.5 t-17 12.5q-20 6 -42.5 10t-45.5 4q-57 0 -84.5 -26t-27.5 -66q0 -19 4.5 -34.5t18.5 -32t41 -35.5t71 -46q50 -30 85 -53.5t57 -47t32 -49.5t10 -59q0 -44 -19.5 -79.5t-52.5 -60.5t-77 -38t-93 -13q-30 0 -47 2.5t-31.5 6t-30.5 6.5t-43 4l-20 -1v39t-0.5 56t-0.5 54v33h61 l12 -101q2 -23 10.5 -29t26.5 -11q19 -5 39 -7.5t41 -2.5z" />
<glyph unicode="T" horiz-adv-x="604" d="M398 0q-29 0 -58.5 0.5t-43.5 0.5h-36t-49.5 -0.5t-47.5 -0.5h-30q-1 14 -1 20t1 18l115 5q1 26 2 68.5t1.5 87t0.5 83.5v57v58.5v81t-0.5 82t-1.5 60.5l-133 -2q-8 0 -11 -4t-4 -12l-7 -127q-12 -1 -29.5 -1t-31.5 1v34.5t0.5 57.5t0.5 59.5v40.5l69 -4l198 -1l198 1 l69 4v-40.5t0.5 -59.5t0.5 -57.5v-34.5q-14 -1 -31.5 -1t-29.5 1l-8 131q0 12 -14 12l-137 1q-1 -30 -1.5 -69l-1 -78.5t-0.5 -75v-56.5v-60.5v-83.5t0.5 -85.5t1.5 -68.5l122 -5q1 -12 1 -18t-1 -20h-73z" />
<glyph unicode="U" horiz-adv-x="741" d="M373 -12q-32 0 -76.5 6t-85.5 27.5t-70 63.5t-29 115v422l-83 4q-1 12 -1 18t1 20h25t36.5 -0.5t38.5 -0.5h31h86q27 0 57 1q1 -14 1 -20t-1 -18l-101 -4v-375q0 -65 11.5 -106.5t35 -66t58 -34t79.5 -9.5q39 0 73.5 10.5t59.5 36t39.5 67.5t14.5 105v364l-119 12 q-1 12 -1 18t1 20h26t39 -0.5t41 -0.5h32h75q22 0 45 1q1 -14 1 -20t-1 -18l-83 -11v-384q0 -73 -24.5 -120t-62 -74.5t-82.5 -38t-87 -10.5z" />
<glyph unicode="V" horiz-adv-x="646" d="M282 -3l-225 627l-62 2q-1 12 -1 18t1 20q22 -1 42 -1h71h33.5t44 0.5t42.5 0.5h28q1 -14 1 -20t-1 -18l-99 -5l191 -539l182 530l-123 14q-1 12 -1 18t1 20q26 -1 52 -1h82h27t30 0.5t28.5 0.5h21.5q1 -14 1 -20t-1 -18l-61 -9l-224 -620h-81z" />
<glyph unicode="W" horiz-adv-x="986" d="M272 -3l-217 625l-60 4q-1 12 -1 18t1 20q22 -1 42 -1h71h33.5t44 0.5t42.5 0.5h28q1 -14 1 -20t-1 -18l-101 -5l183 -539l132 367l-64 173l-60 4q-1 12 -1 18t1 20q22 -1 42 -1h71h33.5t44 0.5t42.5 0.5h28q1 -14 1 -20t-1 -18l-101 -5l193 -539l173 532l-124 12 q-1 12 -1 18t1 20q26 -1 52 -1h82h27t30 0.5t28.5 0.5h21.5q1 -14 1 -20t-1 -18l-61 -11l-213 -618h-82l-141 392l-141 -392h-79z" />
<glyph unicode="X" horiz-adv-x="655" d="M208 623l23.5 -42.5t32.5 -54l37.5 -58.5l36.5 -55l138 201l-88 12q-1 12 -1 18t1 20q26 -1 52 -1h82h27t30 0.5t28.5 0.5h21.5q1 -14 1 -20t-1 -18l-97 -11l-165 -243l233 -332l59 -2q1 -12 1 -18t-1 -20h-21.5t-28.5 0.5t-30 0.5h-27q-15 0 -40.5 -0.5t-51.5 -0.5h-62 q-1 14 -1 20t1 18l77 3l-166 247l-164 -239l93 -11q1 -12 1 -18t-1 -20h-25t-36 0.5t-37.5 0.5h-30.5q-15 0 -34.5 -0.5t-36.5 -0.5h-42q-1 14 -1 20t1 18l91 11l193 281l-195 294l-61 2q-1 12 -1 18t1 20q22 -1 42 -1h71h32t41 0.5t39.5 0.5h26.5q1 -14 1 -20t-1 -18z" />
<glyph unicode="Y" horiz-adv-x="623" d="M172 623l168 -265l151 255l-108 13q-1 12 -1 18t1 20q26 -1 52 -1h82h27t30 0.5t28.5 0.5h21.5q1 -14 1 -20t-1 -18l-81 -11l-175 -298v-56.5v-75t0.5 -77.5t1.5 -65l115 -5q1 -12 1 -18t-1 -20h-69q-28 0 -56.5 0.5t-42.5 0.5h-36t-49.5 -0.5t-47.5 -0.5h-30 q-1 14 -1 20t1 18l115 5q1 26 2 61.5t1.5 71.5t0.5 67.5v49.5l-211 330l-61 3q-1 12 -1 18t1 20q22 -1 42 -1h71h32t41 0.5t39.5 0.5h26.5q1 -14 1 -20t-1 -18z" />
<glyph unicode="Z" horiz-adv-x="614" d="M310 46q18 0 40 0.5t45.5 0.5t46 0.5t41.5 0.5q11 0 15.5 8t5.5 19l7 103q12 1 31 1t33 -1v-33t-0.5 -54t-0.5 -55.5v-38.5q-31 1 -52.5 1.5t-36.5 1t-24.5 0.5h-15.5h-409v45l400 571l-143 1q-48 0 -85.5 -0.5t-64.5 -0.5q-19 0 -20 -20l-7 -111q-12 -1 -29.5 -1 t-31.5 1v33t0.5 54.5t0.5 56.5v39q33 -3 65.5 -3.5t48.5 -0.5h380v-42l-401 -576h161z" />
<glyph unicode="a" horiz-adv-x="466" d="M65 338q-5 14 -6.5 26.5t-1.5 23.5q0 28 14 51.5t37.5 39.5t54.5 25t65 9q45 0 74 -14.5t46 -36.5t24 -48.5t7 -51.5v-35.5t-0.5 -52.5t-0.5 -61.5v-63.5v-58v-45l79 -2q1 -11 1 -15.5t-1 -12.5q-41 -9 -74.5 -15t-78.5 -12q-5 14 -7.5 36l-4.5 39q-23 -35 -60.5 -54.5 t-72.5 -19.5q-55 0 -89.5 33t-34.5 90q0 47 25.5 75t64 43t83.5 19.5t83 4.5l2 79q-1 64 -19.5 94t-63.5 30q-46 0 -72 -19t-26 -47q0 -13 2.5 -26.5t6.5 -27.5h-56zM289 97v27.5t0.5 34.5t0.5 34.5v28.5q-27 0 -56 -3.5t-52.5 -13t-39 -26.5t-15.5 -45q0 -14 3 -28.5 t10.5 -26.5t19.5 -19.5t31 -7.5q29 0 52.5 9t45.5 36z" />
<glyph unicode="b" horiz-adv-x="529" d="M73 25q1 80 1 159.5v159.5v38v55v62.5t-0.5 62.5t-1 54.5t-0.5 38.5l-67 21q-1 11 -1 17.5t1 17.5q42 5 79.5 8.5t79.5 5.5q0 -24 -0.5 -58t-1 -72.5t-0.5 -79v-76.5q10 12 23.5 25.5t31.5 24t39.5 17.5t47.5 7q38 0 71.5 -17t59 -48.5t40.5 -75.5t15 -97 q0 -71 -20.5 -124.5t-56 -89t-82.5 -53.5t-99 -18t-94.5 10.5t-64.5 24.5zM163 345v-56t-0.5 -74.5t-0.5 -78.5v-67q16 -18 39 -27.5t44 -9.5q32 0 59.5 12.5t48 38t32.5 63.5t12 89q0 43 -6.5 81t-22.5 65.5t-43 43.5t-67 16q-25 0 -48.5 -8t-46.5 -21v-67z" />
<glyph unicode="c" horiz-adv-x="457" d="M250 457q-54 0 -86 -49t-32 -138q0 -43 9 -84t29 -72.5t51.5 -51t77.5 -19.5q25 0 51.5 8t55.5 26l14 -31q-18 -17 -42 -29q-20 -11 -49.5 -19.5t-65.5 -8.5q-103 0 -163.5 63.5t-60.5 181.5q0 67 20.5 119t55 87.5t79 54t93.5 18.5q58 0 96 -21t55 -42q-24 -31 -55 -58 q-19 18 -41 32q-19 12 -42.5 22.5t-49.5 10.5z" />
<glyph unicode="d" horiz-adv-x="544" d="M457 727q-1 -29 -1.5 -57t-0.5 -57v-59.5v-65.5v-209v-51v-64.5t0.5 -64.5t1.5 -51l64 -1q1 -11 1 -17.5t-1 -17.5q-42 -9 -73.5 -14l-72.5 -12q-2 6 -3.5 16.5t-2.5 22.5t-1.5 23.5t-1.5 18.5q-21 -30 -57.5 -53.5t-83.5 -23.5t-82 22t-58 56.5t-34.5 77.5t-11.5 85 q0 64 18.5 116t52 89t81 57t106.5 20q35 0 70 -11q0 57 -0.5 93.5t-1.5 61.5l-72 21q-1 11 -1 17.5t1 17.5q42 5 82 8.5t82 5.5zM366 278v34.5v40.5t0.5 42t0.5 39q-12 18 -37 27.5t-46 9.5q-36 0 -64.5 -15t-48 -41.5t-29.5 -63t-10 -80.5q0 -41 6 -78.5t22 -67t43 -47 t68 -17.5q25 0 48.5 8t46.5 21v188z" />
<glyph unicode="e" horiz-adv-x="497" d="M255 466q-25 0 -47.5 -12t-39 -33.5t-26.5 -52.5t-10 -69l229 5q0 31 -6 60.5t-18.5 52t-33 36t-48.5 13.5zM316 46q10 0 24.5 2t30.5 5.5t32 9t30 12.5l12 -34q-25 -15 -53 -26q-24 -10 -55.5 -18t-65.5 -8q-54 0 -97 17t-73 48.5t-46 76.5t-16 101q0 66 17.5 118.5 t48.5 88.5t73 55t91 19q58 0 95.5 -23.5t59 -58t29.5 -74.5t8 -73v-20h-329q0 -37 9.5 -76t31 -70.5t56.5 -51.5t87 -20z" />
<glyph unicode="f" horiz-adv-x="352" d="M102 446h-76q-1 12 -1 18t1 18l76 12v8q0 64 23.5 107t56.5 69.5t68.5 37.5t60.5 11q32 0 57 -6t44.5 -15t33 -20.5t21.5 -21.5q-24 -31 -55 -58q-18 18 -39 32q-18 12 -41 22.5t-46 10.5q-48 0 -71.5 -39t-23.5 -111v-33h139q1 -14 1 -21t-1 -21h-139v-99v-63t0.5 -86 l1 -88t1.5 -70l107 -4q1 -11 1 -17.5t-1 -18.5h-59q-24 0 -49.5 0.5t-39.5 0.5h-28.5t-33.5 -0.5t-32 -0.5h-23q-1 14 -1 19t1 17l62 3q1 26 2 70t1.5 90.5t0.5 86.5v58v102z" />
<glyph unicode="g" horiz-adv-x="503" d="M231 513q35 0 63.5 -8t49.5 -22q15 0 40 2t49 5q28 3 59 7q0 -6 0.5 -14.5t0.5 -18t-0.5 -18t-0.5 -13.5h-100q14 -23 20 -48t6 -51q0 -32 -13 -63t-36 -55.5t-54.5 -40.5t-69.5 -19l-28.5 -10.5t-25.5 -13t-18 -16.5t-7 -19q0 -20 22.5 -27t56 -9t72.5 -4t72.5 -12 t56 -32.5t22.5 -66.5q0 -39 -18 -76t-51 -65t-79.5 -45t-103.5 -17q-48 0 -85 11t-62 28.5t-37.5 39.5t-12.5 45q0 46 27 76.5t83 53.5q-26 9 -36 28.5t-10 32.5q0 19 10 34t26 27.5t36 22t40 16.5q-39 6 -67 22.5t-46 39.5t-27 50.5t-9 55.5q0 37 13 71t37.5 59.5t58.5 41 t76 15.5zM387 -90q0 22 -11.5 35t-31 20t-44.5 9.5t-51.5 4t-52 3.5t-46.5 8q-26 -20 -38.5 -42.5t-12.5 -57.5q0 -19 8 -37.5t24 -33.5t39.5 -24t54.5 -9q39 0 69.5 10t51 27t31 39.5t10.5 47.5zM231 198q45 0 75.5 34t30.5 90q0 31 -6 58.5t-19 47.5t-33 32t-48 12 q-19 0 -37.5 -8t-33.5 -25t-24 -45.5t-9 -68.5q0 -26 8 -49.5t21.5 -40.5t32.5 -27t42 -10z" />
<glyph unicode="h" horiz-adv-x="578" d="M332 0q-1 14 -1 19t1 17l66 3q1 26 1.5 62.5l1 74t0.5 70.5v51q0 31 -2.5 56.5t-13 44.5t-31.5 29.5t-58 10.5q-10 0 -23.5 -1.5t-29.5 -4.5t-32 -7.5t-31 -11.5v-68v-61.5v-86t0.5 -88.5t1.5 -70l68 -3q1 -11 1 -17.5t-1 -18.5h-39q-17 0 -36 0.5t-33 0.5h-29.5 t-35 -0.5t-33 -0.5h-23.5q-1 14 -1 19t1 17l66 3q1 26 2 70t1.5 90.5t0.5 86.5v58v63.5v91.5t-0.5 91.5t-1.5 63.5l-72 21q-1 11 -1 17.5t1 17.5q42 5 82 8.5t82 5.5q0 -24 -0.5 -58.5t-0.5 -73v-79v-77.5q12 12 29 26t38 25t44 18.5t47 7.5q72 0 113 -43.5t41 -130.5 q0 -21 -0.5 -60.5t-0.5 -83.5t-0.5 -86.5t-0.5 -69.5l71 -3q1 -11 1 -17.5t-1 -18.5h-39q-17 0 -36 0.5t-33 0.5h-29.5t-35 -0.5t-33 -0.5h-23.5z" />
<glyph unicode="i" horiz-adv-x="287" d="M34 0q-1 14 -1 19t1 17l67 3l2 54.5t1.5 56t0.5 52v42.5v45v51.5t-0.5 51.5t-1.5 45l-73 21q-1 11 -1 17.5t1 17.5q42 5 82.5 8.5t82.5 5.5q-1 -63 -1 -131v-131v-97.5t2 -108.5l68 -3q1 -11 1 -17.5t-1 -18.5h-39q-17 0 -36 0.5t-33 0.5h-29.5t-35.5 -0.5t-33.5 -0.5 h-23.5zM141 638q-27 0 -43.5 17t-16.5 44t21 48t48 21q32 0 46.5 -18.5t14.5 -45.5q0 -28 -20.5 -47t-49.5 -19z" />
<glyph unicode="j" horiz-adv-x="270" d="M191 9q0 -53 -16.5 -94.5t-44.5 -74t-64 -57.5t-75 -44q-8 8 -11.5 12.5t-8.5 13.5q27 19 50.5 43.5t41 55t28 67t10.5 78.5q0 26 0.5 56l1 59.5t1 55.5t0.5 44v48.5v58t-0.5 58t-1.5 48.5l-97 21q-1 11 -1 17.5t1 17.5q21 2 45.5 4l49.5 4t49 3.5t45 2.5q0 -32 -0.5 -68 t-0.5 -73v-73.5v-67.5v-47.5v-55t-0.5 -57.5t-1.5 -56zM84 699q0 27 21 48t48 21q32 0 46.5 -18.5t14.5 -45.5q0 -28 -20.5 -47t-49.5 -19q-27 0 -43.5 17t-16.5 44z" />
<glyph unicode="k" horiz-adv-x="540" d="M246 0h-37q-16 0 -34.5 0.5t-32.5 0.5h-29.5t-35 -0.5t-33 -0.5h-23.5q-1 14 -1 19t1 17l66 3q1 26 2 70t1.5 90.5t0.5 86.5v58v63.5v91.5t-0.5 91.5t-1.5 63.5l-67 21q-1 11 -1 17.5t1 17.5q42 5 79.5 8.5t79.5 5.5q0 -32 -0.5 -83t-0.5 -106.5v-107v-82.5v-61.5v-86 t0.5 -88.5t1.5 -70l64 -3q1 -11 1 -17.5t-1 -18.5zM386 39l-192 216l157 197l-77 11q-1 12 -1 17t1 19h24.5t35 -0.5t36.5 -0.5h30h69q19 0 39 1q1 -12 1 -18.5t-1 -17.5l-90 -11l-140 -169l225 -245l45 -2q1 -11 1 -17.5t-1 -18.5h-34q-15 0 -32.5 0.5t-31.5 0.5h-30 t-36.5 -0.5t-35 -0.5h-24.5q-1 14 -1 19t1 17z" />
<glyph unicode="l" horiz-adv-x="275" d="M252 0h-39q-17 0 -36 0.5t-33 0.5h-29.5t-35 -0.5t-33 -0.5h-23.5q-1 14 -1 19t1 17l66 3q1 26 2 70t1.5 90.5t0.5 86.5v58v63.5v91.5t-0.5 91.5t-1.5 63.5l-72 21q-1 11 -1 17.5t1 17.5q42 5 82 8.5t82 5.5q0 -32 -0.5 -83t-0.5 -106.5v-107v-82.5v-61.5v-86t0.5 -88.5 t1.5 -70l68 -3q1 -11 1 -17.5t-1 -18.5z" />
<glyph unicode="m" horiz-adv-x="877" d="M861 36q1 -11 1 -17.5t-1 -18.5h-39q-17 0 -36 0.5t-33 0.5h-29.5t-35 -0.5t-33 -0.5h-23.5q-1 14 -1 19t1 17l66 3q1 26 1.5 62.5l1 74t0.5 70.5v51q0 31 -2 56.5t-12 44.5t-30.5 29.5t-57.5 10.5q-9 0 -23 -2t-29.5 -5.5t-31.5 -8.5t-31 -12q9 -32 9 -71 q0 -21 -0.5 -60.5t-0.5 -83.5t-0.5 -86.5t-0.5 -69.5l71 -3q1 -11 1 -17.5t-1 -18.5h-39q-17 0 -36 0.5t-33 0.5h-29.5t-35 -0.5t-33 -0.5h-23.5q-1 14 -1 19t1 17l66 3q1 26 1.5 62.5l1 74t0.5 70.5v51q0 31 -2 56.5t-12 44.5t-30.5 29.5t-57.5 10.5q-19 0 -49 -5.5 t-59 -18.5q-1 -43 -0.5 -85.5t0.5 -83.5v-97.5t2 -108.5l68 -3q1 -11 1 -17.5t-1 -18.5h-39q-17 0 -36 0.5t-33 0.5h-29.5t-35.5 -0.5t-33.5 -0.5h-23.5q-1 14 -1 19t1 17l67 3l2 54.5t1.5 56t0.5 52v42.5v45v51.5t-0.5 51.5t-1.5 45l-73 21q-1 11 -1 17.5t1 17.5 q42 5 82.5 8.5t82.5 5.5q-1 -17 -1 -34.5v-34.5q11 12 27 25t35.5 24.5t42 18.5t45.5 7q101 0 136 -84q12 13 29.5 27.5t39.5 27t46 21t48 8.5q72 0 111.5 -43.5t39.5 -130.5q0 -21 -0.5 -60.5t-0.5 -83.5t-0.5 -86.5t-0.5 -69.5z" />
<glyph unicode="n" horiz-adv-x="588" d="M343 0q-1 14 -1 19t1 17l66 3q1 26 1.5 62.5l1 74t0.5 70.5v51q0 31 -2.5 56.5t-13 44.5t-31.5 29.5t-58 10.5q-10 0 -23.5 -1.5t-29 -4.5t-31.5 -7.5t-31 -10.5q-1 -43 -0.5 -85.5t0.5 -83.5v-97.5t2 -108.5l68 -3q1 -11 1 -17.5t-1 -18.5h-39q-17 0 -36 0.5t-33 0.5 h-29.5t-35.5 -0.5t-33.5 -0.5h-23.5q-1 14 -1 19t1 17l67 3l2 54.5t1.5 56t0.5 52v42.5v45v51.5t-0.5 51.5t-1.5 45l-73 21q-1 11 -1 17.5t1 17.5q42 5 82.5 8.5t82.5 5.5q-1 -17 -1 -35v-35q12 12 29.5 25.5t38 24.5t43.5 18.5t46 7.5q72 0 113 -43.5t41 -130.5 q0 -21 -0.5 -60.5t-0.5 -83.5t-0.5 -86.5t-0.5 -69.5l71 -3q1 -11 1 -17.5t-1 -18.5h-39q-17 0 -36 0.5t-33 0.5h-29.5t-35 -0.5t-33 -0.5h-23.5z" />
<glyph unicode="o" horiz-adv-x="544" d="M263 -10q-53 0 -94.5 18.5t-70 51.5t-44 79t-15.5 102q0 55 16.5 104.5t47 86.5t74.5 59t99 22q52 0 94.5 -18t72.5 -50.5t46 -78.5t16 -101q0 -57 -15.5 -107t-45.5 -87.5t-75.5 -59t-105.5 -21.5zM268 38q39 0 66.5 16t45 44t25 66t7.5 82q0 47 -10 87t-28 69t-44 45 t-59 16q-38 0 -64.5 -15.5t-43 -43t-24 -65t-7.5 -80.5q0 -42 9 -82t26.5 -71t42.5 -49.5t58 -18.5z" />
<glyph unicode="p" horiz-adv-x="547" d="M236 -238q-26 0 -53.5 0.5t-41.5 0.5h-29.5t-35 -0.5t-33 -0.5h-23.5q-1 14 -1 19t1 17l66 3q1 26 2 69.5t1.5 97l1 112t0.5 114.5v53v69t-0.5 69t-1.5 53l-67 21q-1 11 -1 17.5t1 17.5q42 5 79.5 8.5t79.5 5.5l-2 -69q26 30 60.5 52t81.5 22q44 0 78.5 -20.5t58.5 -54 t37 -76.5t13 -89q0 -69 -21 -122t-56 -88.5t-82.5 -54t-99.5 -18.5q-39 0 -70 6v-52v-52.5t0.5 -48.5t1.5 -40l121 -5q1 -12 1 -17t-1 -19h-66zM180 195q0 -42 -0.5 -74t-0.5 -52q6 -7 15.5 -13.5t21 -12t23.5 -8.5t23 -3q32 0 59.5 13.5t48 39.5t32.5 63.5t12 84.5 q0 43 -6.5 81t-22.5 66t-43 44.5t-67 16.5q-25 0 -48.5 -8t-46.5 -21v-217z" />
<glyph unicode="q" horiz-adv-x="527" d="M244 -238q-1 14 -1 19t1 17l121 5q0 21 0.5 53.5t1 69.5t0.5 72.5v62.5l-1 6q-22 -29 -58 -53t-83 -24q-44 0 -78.5 21t-58.5 54.5t-36.5 75.5t-12.5 84q0 71 20.5 125t56 90t82 54.5t99.5 18.5q52 0 95 -10.5t65 -24.5q-1 -19 -1.5 -41l-1 -44.5t-0.5 -44v-39.5v-54.5 t-0.5 -71.5t-0.5 -71v-55v-60t1 -71t1.5 -69.5t2.5 -55.5l56 -3q1 -12 1 -17t-1 -19h-21.5t-29 0.5t-31 0.5h-27.5q-15 0 -42 -0.5t-53 -0.5h-66zM366 308v32.5t0.5 23t0.5 27v43.5q-13 18 -37.5 27.5t-45.5 9.5q-32 0 -59.5 -13.5t-48 -39.5t-32.5 -64.5t-12 -88.5 q0 -39 6.5 -76t22.5 -65.5t42.5 -46t67.5 -17.5q25 0 48.5 8t46.5 21v219z" />
<glyph unicode="r" horiz-adv-x="377" d="M350 418q-26 6 -51 6q-30 0 -55 -5t-54 -19v-165v-92t2 -103l109 -4q1 -11 1 -17.5t-1 -18.5h-60q-24 0 -49.5 0.5t-39.5 0.5h-29.5t-35 -0.5t-33 -0.5h-23.5q-1 14 -1 19t1 17l66 3q3 52 3.5 105.5t0.5 89.5v47v54.5t-0.5 54.5t-1.5 47l-70 21q-1 11 -1 17.5t1 17.5 q21 2 38 4l33.5 4t33 3.5t37.5 2.5q4 -8 7.5 -21.5t6 -26.5t4 -24t1.5 -14v-1q12 16 27.5 32.5t32.5 30t34.5 22t34.5 8.5q11 0 21 -2.5t20 -9.5z" />
<glyph unicode="s" horiz-adv-x="420" d="M301 431q-2 20 -8.5 26t-20.5 10q-20 5 -40 5q-19 0 -37 -3.5t-32.5 -11.5t-23.5 -20.5t-9 -30.5q0 -19 10.5 -34.5t26.5 -28t35 -24l36 -22.5q41 -22 68 -39.5t42.5 -36t22 -40.5t6.5 -52q0 -32 -16 -58t-42.5 -44t-60 -28t-68.5 -10q-31 0 -55 6.5t-51 10.5l-34 -2 v33.5t-0.5 44t-0.5 42v27.5h52l9 -83q2 -14 7 -20t15 -9q24 -8 52 -8q19 0 38.5 4t34.5 12.5t24.5 22.5t9.5 34q0 14 -3 26t-14 25t-32.5 28.5t-58.5 37.5q-18 10 -41 24t-43.5 32.5t-35 43t-14.5 55.5q0 36 16 62t41.5 42.5t56.5 24.5t62 8q29 0 54.5 -4.5l50.5 -8.5l30 2 v-33t0.5 -43t0.5 -41.5v-27.5h-52z" />
<glyph unicode="t" horiz-adv-x="378" d="M355 79l12 -34q-27 -20 -59 -35.5t-70 -15.5q-29 0 -55.5 8t-46.5 24.5t-32.5 42.5t-12.5 61l2 310h-76v25q39 27 75 59.5t65 79.5h24l-3 -116h182q1 -14 1 -24t-1 -24h-179l-2 -291q0 -53 24 -77.5t69 -24.5q22 0 41.5 10z" />
<glyph unicode="u" horiz-adv-x="576" d="M244 -10q-82 0 -120.5 43.5t-38.5 130.5q0 21 0.5 57.5l1 76.5l1 79.5t0.5 66.5l-68 14q-1 11 -1 17.5t1 17.5q42 5 80 8.5t80 5.5q-1 -26 -2 -68.5t-1.5 -86.5t-0.5 -82.5v-56.5q0 -35 3 -62t13.5 -46.5t30.5 -29.5t56 -10q28 0 57.5 5.5t59.5 18.5v170v83.5t-1 94.5 l-97 21q-1 11 -1 17.5t1 17.5q21 2 45.5 4l50 4t50 3.5t45.5 2.5q-2 -26 -2.5 -61l-1 -70.5t-0.5 -66.5v-49v-48v-58t0.5 -58t1.5 -48l68 -2q1 -11 1 -17.5t-1 -17.5q-42 -5 -75 -12t-75 -12l-6 38.5t-3 38.5v3q-14 -15 -33 -28.5t-39.5 -24.5t-41 -17.5t-38.5 -6.5z" />
<glyph unicode="v" horiz-adv-x="517" d="M403 451l-75 12q-1 12 -1 17t1 19q17 0 44 -0.5t51 -0.5h58q15 0 28 1q1 -12 1 -18.5t-1 -17.5l-51 -9l-164 -463h-60l-187 469l-48 3q-1 12 -1 17t1 19h21t27.5 -0.5t29.5 -0.5h27h70q20 0 40 1q1 -12 1 -18.5t-1 -17.5l-66 -3q4 -17 13.5 -45.5t26 -73.5l41 -107.5 l58.5 -146.5z" />
<glyph unicode="w" horiz-adv-x="781" d="M668 451l-76 12q-1 12 -1 17t1 19q17 0 44 -0.5t51 -0.5h58q15 0 28 1q1 -12 1 -18.5t-1 -17.5l-50 -9l-157 -463h-60l-118 314l-106 -314h-58l-177 469l-48 3q-1 12 -1 17t1 19h21t27.5 -0.5t29.5 -0.5h27h70q20 0 40 1q1 -12 1 -18.5t-1 -17.5l-73 -3q4 -17 14 -45 l26.5 -72.5l40 -107l55.5 -148.5l91 271l-39 102l-48 3q-1 12 -1 17t1 19h21t27.5 -0.5t29.5 -0.5h27h70q20 0 40 1q1 -12 1 -18.5t-1 -17.5l-72 -3q4 -16 14 -44l26 -72l39.5 -107l55.5 -150z" />
<glyph unicode="x" horiz-adv-x="511" d="M69 47l145 193l-158 221l-39 2q-1 12 -1 17t1 19q17 0 44 -0.5t51 -0.5h65q18 0 35 1q1 -12 1 -18.5t-1 -17.5l-47 -3l99 -151l98 142l-62 12q-1 12 -1 17t1 19q17 0 47 -0.5t54 -0.5h55q13 0 26 1q1 -12 1 -18.5t-1 -17.5l-63 -10l-132 -174l179 -241l47 -2 q1 -11 1 -17.5t-1 -18.5h-31q-14 0 -30 0.5t-30 0.5h-30t-36.5 -0.5t-34.5 -0.5h-24q-1 14 -1 19t1 17l58 3l-119 171l-110 -164l75 -10q1 -11 1 -17.5t-1 -18.5h-30q-14 0 -30 0.5t-30 0.5h-27t-29.5 -0.5t-27.5 -0.5h-21q-1 14 -1 19t1 17z" />
<glyph unicode="y" horiz-adv-x="518" d="M119 -256q-17 0 -36.5 3t-42.5 12q5 17 13.5 39.5t16.5 39.5q17 -10 33.5 -15.5t29.5 -5.5q18 0 30 6t22.5 22t21 43.5t25.5 71.5l10 31l-190 469l-48 3q-1 12 -1 17t1 19h21t27.5 -0.5t29.5 -0.5h27h70q20 0 40 1q1 -12 1 -18.5t-1 -17.5l-66 -3q18 -69 54.5 -165 t85.5 -211l115 367l-75 12q-1 12 -1 17t1 19q17 0 44 -0.5t51 -0.5h58q15 0 28 1q1 -12 1 -18.5t-1 -17.5l-50 -9l-189 -525q-16 -42 -30.5 -76.5t-32 -58.5t-40 -37t-53.5 -13z" />
<glyph unicode="z" horiz-adv-x="489" d="M449 -1q-61 2 -116.5 2.5t-99 0t-72 -1t-35.5 -0.5h-87v41l282 415l-191 -3q-11 0 -16 -8t-6 -16l-8 -82h-52v28.5t0.5 44t0.5 46v34.5l271 -1h114v-41l-289 -413h225q19 0 21 18l9 88h50v-28.5t-0.5 -44t-0.5 -45.5v-34z" />
<glyph unicode="0" horiz-adv-x="604" d="M304 537q55 0 101.5 -18.5t80.5 -53.5t53.5 -84.5t19.5 -112.5q0 -65 -19.5 -116.5t-53.5 -87t-81 -54.5t-101 -19q-59 0 -107 19t-81.5 54.5t-52 87t-18.5 116.5q0 63 22 112.5t58.5 84.5t83 53.5t95.5 18.5zM304 38q78 0 119 59t41 171q0 107 -42.5 164t-117.5 57 q-36 0 -66 -14.5t-52 -42.5t-34.5 -69.5t-12.5 -94.5q0 -105 42.5 -167.5t122.5 -62.5z" />
<glyph unicode="1" horiz-adv-x="383" d="M251 539q0 -30 -0.5 -67.5t-0.5 -75.5v-72v-55v-49v-58t0.5 -60t1.5 -57l111 -3q1 -12 1 -20t-1 -22h-64q-26 0 -52.5 0.5t-40.5 0.5h-33.5t-44 -0.5t-42.5 -0.5h-28q-1 14 -1 22t1 20l96 3q1 26 2 57.5t1.5 62t0.5 58v45.5v46v53t-0.5 53t-1.5 46l-117 -28q-1 12 -1 20 t1 22z" />
<glyph unicode="2" horiz-adv-x="496" d="M210 475q-33 0 -69 -15.5t-62 -37.5l-18 25q33 37 76.5 63.5t96.5 26.5q43 0 74.5 -12t51 -31.5t29 -44.5t9.5 -51q0 -61 -30 -109.5t-74 -88.5t-94.5 -71.5l-91.5 -58.5l361 11q0 -12 -2.5 -26t-7 -26.5t-9.5 -20.5t-9 -8h-408v47q39 39 85.5 79.5t87.5 83t68.5 85.5 t27.5 86q0 41 -22.5 67.5t-69.5 26.5z" />
<glyph unicode="3" d="M54 442q34 38 81.5 66.5t106.5 28.5q45 0 78.5 -14t56 -36.5t34 -52t11.5 -60.5q0 -29 -10 -57.5t-29.5 -52t-49 -41t-68.5 -23.5q97 -20 146.5 -69.5t49.5 -119.5q0 -47 -16.5 -86.5t-48.5 -67.5t-78 -43.5t-104 -15.5q-34 0 -66 9t-58.5 21t-43.5 23.5t-21 16.5l35 51 q19 -19 42 -34q20 -13 45.5 -23.5t55.5 -10.5q74 0 117 37t43 102q0 66 -58 111.5t-168 62.5l2 35q47 2 82.5 17t59 37t35.5 48.5t12 51.5q0 54 -31.5 85t-87.5 31q-36 0 -69.5 -14t-62.5 -37z" />
<glyph unicode="4" horiz-adv-x="630" d="M603 142q0 -12 -2.5 -26t-7 -26t-9.5 -20t-9 -8h-151v-262q-47 -3 -94 0v262h-301q-5 11 -7.5 22t-2.5 25l307 409q13 13 40.5 17.5t57.5 6.5v-408zM330 133v321l-246 -332z" />
<glyph unicode="5" horiz-adv-x="512" d="M129 265q73 -13 136 -31t109.5 -47t72.5 -71t26 -103q0 -37 -12 -75t-41.5 -69t-77.5 -50.5t-120 -19.5q-35 0 -69 9.5t-61 22t-45 24.5t-22 17l33 56q21 -21 47 -38q22 -14 51 -25.5t63 -11.5q39 0 68 11.5t48.5 30.5t29.5 44.5t10 52.5q0 48 -26 80.5t-68.5 55t-96 36 t-108.5 24.5l25 341l363 10q2 -22 -5 -48.5t-17 -36.5l-302 -5z" />
<glyph unicode="6" horiz-adv-x="534" d="M398 192q0 76 -35 118t-98 42q-26 0 -48 -8t-38 -18t-25 -18t-9 -9q0 -46 5.5 -94t22 -87t46 -64t78.5 -25q32 0 52 15t31 38.5t14.5 52.5t3.5 57zM496 203q0 -39 -12.5 -76.5t-39 -67.5t-67 -48.5t-96.5 -18.5q-62 0 -106.5 26t-73 69t-41.5 99t-13 116q0 66 24 132 t74 118.5t126.5 85t182.5 32.5q2 -13 2 -20.5t-2 -19.5q-68 0 -125 -22t-98.5 -61t-65 -93.5t-23.5 -120.5q0 -1 11 9t32.5 22.5t52.5 23t71 10.5q49 0 84 -15.5t58 -42.5t34 -62.5t11 -74.5z" />
<glyph unicode="7" horiz-adv-x="471" d="M480 526q-63 -186 -144 -366t-178 -357q-17 0 -27 5t-27 17l87 151.5t79.5 152.5t71.5 156.5t64 164.5l-387 -7q3 21 7 43t15 40h439z" />
<glyph unicode="8" horiz-adv-x="545" d="M268 -14q-42 0 -82 12t-71.5 33t-50.5 51t-19 66q0 38 15.5 66.5t39.5 50t51.5 37.5l51.5 30q-14 10 -35.5 24t-41.5 34t-35 47t-15 63t15 67.5t42 55t63.5 37.5t80.5 14q94 0 142 -43.5t48 -109.5q0 -30 -13 -52.5t-34.5 -40t-49 -31.5l-56.5 -28l64 -40.5t60.5 -44 t45.5 -51.5t18 -62q0 -38 -19.5 -71.5t-52.5 -58.5t-75 -40t-87 -15zM275 28q31 0 56 10t42.5 27t27 39t9.5 46t-20 47.5t-48 45.5t-58.5 40.5t-52.5 30.5q-48 -35 -72 -69t-24 -85q0 -24 10.5 -47.5t29 -42.5t44.5 -30.5t56 -11.5zM290 385q22 17 38.5 32t28 30.5t17.5 32 t6 36.5q0 28 -9 49.5t-24 36.5t-35 23t-42 8q-56 0 -83.5 -29t-27.5 -76q0 -20 9.5 -37.5t27 -34t41.5 -34z" />
<glyph unicode="9" horiz-adv-x="534" d="M129 321q0 -81 39 -124.5t106 -43.5q28 0 51 6.5t39.5 14.5t25.5 14.5t9 7.5q0 23 -3 54t-10 64t-18.5 65t-29.5 57.5t-42.5 41t-56.5 15.5q-35 0 -56.5 -16t-33.5 -40.5t-16 -55t-4 -60.5zM33 311q0 41 13.5 81.5t41 72.5t69.5 52t100 20q66 0 111.5 -29.5t74 -77.5 t41 -110t12.5 -126q0 -71 -24 -142t-75.5 -127.5t-132 -91.5t-193.5 -35q-2 14 -2 20.5t2 20.5q73 0 133 21.5t103 63t67 101t24 134.5q0 1 -11 -8t-32.5 -20t-53.5 -20.5t-75 -9.5q-52 0 -88.5 17t-60 46t-34 67t-10.5 80z" />
<glyph unicode="&#xc0;" horiz-adv-x="641" d="M0 0zM186 239l-65 -188l112 -13q1 -12 1 -18t-1 -20h-52q-22 0 -45 0.5t-37 0.5h-27t-30 -0.5t-28.5 -0.5h-21.5q-1 14 -1 20t1 18l68 11l229 618h67l226 -626l63 -3q1 -12 1 -18t-1 -20h-42q-17 0 -37 0.5t-34 0.5h-33.5t-44 -0.5t-42.5 -0.5h-28q-1 14 -1 20t1 18l98 4 l-72 198h-58h-53.5h-54t-58.5 -1zM196 277q26 -1 49 -1.5t46.5 -0.5t49.5 0.5t57 0.5l-100 281zM370 727l-225 73l31 64l204 -111z" />
<glyph unicode="&#xc7;" horiz-adv-x="666" d="M43 0zM535 581q-2 17 -7 24.5t-19 11.5q-20 5 -46 8t-61 3q-49 0 -95.5 -16t-82.5 -51t-57.5 -89.5t-21.5 -132.5q0 -81 23.5 -138t60 -93.5t80.5 -53t84 -16.5q32 0 60.5 2t53.5 7q14 3 21 8t9 22l18 127q33 2 66 0q0 -8 -1.5 -34.5t-4 -57.5t-4 -59t-1.5 -40l-19 1 q-18 -1 -42 -5.5t-50.5 -9t-53.5 -8t-51 -3.5q-80 0 -144.5 23t-110.5 66.5t-71 104.5t-25 138q0 81 25.5 147t73 112.5t114 72t148.5 25.5q23 0 48.5 -3t50 -7t46.5 -8t40 -5l21 1v-37.5t0.5 -52.5t0.5 -50.5v-31.5q-33 -2 -66 0zM273 -225l13 31q9 -6 28 -13t41 -7 q29 0 44 15.5t15 36.5q0 20 -19.5 37t-57.5 36l31 95h39l-18 -57q53 -19 76 -47t23 -56q0 -37 -34.5 -64.5t-98.5 -27.5q-23 0 -44.5 5t-37.5 16z" />
<glyph unicode="&#xc9;" horiz-adv-x="604" d="M34 0zM486 0h-170h-57q-23 0 -47.5 0.5t-38.5 0.5h-32t-41 -0.5t-39 -0.5h-26q-1 14 -1 20t1 18l89 3q1 26 2 69t1.5 88t0.5 84v57v59.5v82.5t-0.5 82.5t-1.5 59.5l-89 3q-1 12 -1 18t1 20h26.5t40 -0.5t42 -0.5h32.5h288l72 3v-35.5t0.5 -48.5t0.5 -47v-30 q-14 -1 -32.5 -1t-30.5 1l-9 89q-2 23 -26 23l-215 2q-1 -27 -1.5 -61l-1 -68.5t-0.5 -67.5v-57q77 -1 154 0l17 91q14 1 22.5 1t22.5 -1q-1 -57 -1 -122.5t1 -122.5q-14 -1 -22.5 -1t-22.5 1l-17 111q-41 1 -76.5 1t-77.5 -1v-60.5v-76t0.5 -76.5t1.5 -63h236q25 0 26 26 l9 106q12 1 30.5 1t32.5 -1v-33t-0.5 -53.5t-0.5 -55v-38.5zM239 753l205 111l31 -64l-225 -73z" />
<glyph unicode="&#xca;" horiz-adv-x="604" d="M34 0zM486 0h-170h-57q-23 0 -47.5 0.5t-38.5 0.5h-32t-41 -0.5t-39 -0.5h-26q-1 14 -1 20t1 18l89 3q1 26 2 69t1.5 88t0.5 84v57v59.5v82.5t-0.5 82.5t-1.5 59.5l-89 3q-1 12 -1 18t1 20h26.5t40 -0.5t42 -0.5h32.5h288l72 3v-35.5t0.5 -48.5t0.5 -47v-30 q-14 -1 -32.5 -1t-30.5 1l-9 89q-2 23 -26 23l-215 2q-1 -27 -1.5 -61l-1 -68.5t-0.5 -67.5v-57q77 -1 154 0l17 91q14 1 22.5 1t22.5 -1q-1 -57 -1 -122.5t1 -122.5q-14 -1 -22.5 -1t-22.5 1l-17 111q-41 1 -76.5 1t-77.5 -1v-60.5v-76t0.5 -76.5t1.5 -63h236q25 0 26 26 l9 106q12 1 30.5 1t32.5 -1v-33t-0.5 -53.5t-0.5 -55v-38.5zM488 765l-36 -54l-149 95l-140 -95l-24 29l178 135z" />
<glyph unicode="&#xcb;" horiz-adv-x="604" d="M34 0zM486 0h-170h-57q-23 0 -47.5 0.5t-38.5 0.5h-32t-41 -0.5t-39 -0.5h-26q-1 14 -1 20t1 18l89 3q1 26 2 69t1.5 88t0.5 84v57v59.5v82.5t-0.5 82.5t-1.5 59.5l-89 3q-1 12 -1 18t1 20h26.5t40 -0.5t42 -0.5h32.5h288l72 3v-35.5t0.5 -48.5t0.5 -47v-30 q-14 -1 -32.5 -1t-30.5 1l-9 89q-2 23 -26 23l-215 2q-1 -27 -1.5 -61l-1 -68.5t-0.5 -67.5v-57q77 -1 154 0l17 91q14 1 22.5 1t22.5 -1q-1 -57 -1 -122.5t1 -122.5q-14 -1 -22.5 -1t-22.5 1l-17 111q-41 1 -76.5 1t-77.5 -1v-60.5v-76t0.5 -76.5t1.5 -63h236q25 0 26 26 l9 106q12 1 30.5 1t32.5 -1v-33t-0.5 -53.5t-0.5 -55v-38.5zM164 784q0 29 16.5 42.5t39.5 13.5t39.5 -13.5t16.5 -42.5t-16.5 -42.5t-39.5 -13.5t-39.5 13.5t-16.5 42.5zM358 784q0 29 16.5 42.5t39.5 13.5t39.5 -13.5t16.5 -42.5t-16.5 -42.5t-39.5 -13.5t-39.5 13.5 t-16.5 42.5z" />
<glyph unicode="&#xc8;" horiz-adv-x="604" d="M34 0zM486 0h-170h-57q-23 0 -47.5 0.5t-38.5 0.5h-32t-41 -0.5t-39 -0.5h-26q-1 14 -1 20t1 18l89 3q1 26 2 69t1.5 88t0.5 84v57v59.5v82.5t-0.5 82.5t-1.5 59.5l-89 3q-1 12 -1 18t1 20h26.5t40 -0.5t42 -0.5h32.5h288l72 3v-35.5t0.5 -48.5t0.5 -47v-30 q-14 -1 -32.5 -1t-30.5 1l-9 89q-2 23 -26 23l-215 2q-1 -27 -1.5 -61l-1 -68.5t-0.5 -67.5v-57q77 -1 154 0l17 91q14 1 22.5 1t22.5 -1q-1 -57 -1 -122.5t1 -122.5q-14 -1 -22.5 -1t-22.5 1l-17 111q-41 1 -76.5 1t-77.5 -1v-60.5v-76t0.5 -76.5t1.5 -63h236q25 0 26 26 l9 106q12 1 30.5 1t32.5 -1v-33t-0.5 -53.5t-0.5 -55v-38.5zM391 727l-225 73l31 64l204 -111z" />
<glyph unicode="&#xcf;" horiz-adv-x="355" d="M25 0zM228 623q-1 -30 -1.5 -69.5l-1 -80t-0.5 -76.5v-57v-60.5v-83.5t0.5 -86t1.5 -69l90 -3q1 -12 1 -18t-1 -20h-57q-23 0 -47.5 0.5t-38.5 0.5h-32t-41 -0.5t-39 -0.5h-26q-1 14 -1 20t1 18l90 3q1 26 2 69t1.5 88t0.5 84v57v59.5v82.5t-0.5 82.5t-1.5 59.5l-90 3 q-1 12 -1 18t1 20h26.5t40 -0.5t42 -0.5h32.5h85q26 0 55 1q1 -14 1 -20t-1 -18zM25 784q0 29 16.5 42.5t39.5 13.5t39.5 -13.5t16.5 -42.5t-16.5 -42.5t-39.5 -13.5t-39.5 13.5t-16.5 42.5zM219 784q0 29 16.5 42.5t39.5 13.5t39.5 -13.5t16.5 -42.5t-16.5 -42.5 t-39.5 -13.5t-39.5 13.5t-16.5 42.5z" />
<glyph unicode="&#xd1;" horiz-adv-x="754" d="M35 0zM634 311v-164.5t1 -163.5h-30l-425 532q-1 -60 0 -122.5t1 -122.5v-215l131 -17q1 -12 1 -18t-1 -20h-67q-27 0 -54.5 0.5t-41.5 0.5q-24 0 -52.5 -0.5t-45.5 -0.5q-1 14 -1 20t1 18l76 17l5 550l-97 20v39l148 -1l406 -501q-4 63 -5 124t-1 120q0 52 -0.5 101.5 t-0.5 100.5l-128 18q-1 12 -1 18t1 20q30 -1 57 -1h86h29t34 0.5t32 0.5h23q1 -14 1 -20t-1 -18l-81 -14q-1 -77 -0.5 -151t0.5 -150zM220 754q23 38 45 58.5t48 20.5q23 0 43.5 -9t38.5 -20l33 -20t29 -9q13 0 28 5.5t33 30.5l20 -13q-17 -38 -39.5 -55.5t-47.5 -17.5 q-16 0 -35 9t-37.5 20t-35.5 20t-30 9q-23 0 -40.5 -14t-31.5 -31z" />
<glyph unicode="&#xd6;" horiz-adv-x="755" d="M42 0zM381 677q65 0 125 -22t105.5 -64.5t73 -104.5t27.5 -141q0 -83 -25.5 -149t-70.5 -112.5t-107 -71t-136 -24.5q-62 0 -121.5 22t-106 65t-75 106.5t-28.5 147.5q0 74 26 137.5t71.5 110.5t107.5 73.5t134 26.5zM386 38q51 0 92.5 19.5t70.5 57t45 92t16 124.5 q0 69 -18.5 123.5t-50.5 92t-75.5 57.5t-93.5 20q-44 0 -85 -17.5t-72.5 -52.5t-51 -88t-19.5 -125q0 -69 19 -125t52 -95.5t77 -61t94 -21.5zM224 784q0 29 16.5 42.5t39.5 13.5t39.5 -13.5t16.5 -42.5t-16.5 -42.5t-39.5 -13.5t-39.5 13.5t-16.5 42.5zM418 784 q0 29 16.5 42.5t39.5 13.5t39.5 -13.5t16.5 -42.5t-16.5 -42.5t-39.5 -13.5t-39.5 13.5t-16.5 42.5z" />
<glyph unicode="&#xd4;" horiz-adv-x="755" d="M42 0zM381 677q65 0 125 -22t105.5 -64.5t73 -104.5t27.5 -141q0 -83 -25.5 -149t-70.5 -112.5t-107 -71t-136 -24.5q-62 0 -121.5 22t-106 65t-75 106.5t-28.5 147.5q0 74 26 137.5t71.5 110.5t107.5 73.5t134 26.5zM386 38q51 0 92.5 19.5t70.5 57t45 92t16 124.5 q0 69 -18.5 123.5t-50.5 92t-75.5 57.5t-93.5 20q-44 0 -85 -17.5t-72.5 -52.5t-51 -88t-19.5 -125q0 -69 19 -125t52 -95.5t77 -61t94 -21.5zM548 766l-36 -54l-149 95l-140 -95l-24 29l178 135z" />
<glyph unicode="&#xc6;" horiz-adv-x="884" d="M773 178q12 1 32 1t34 -1v-32.5t-0.5 -53t-0.5 -54.5v-38h-242h-57q-23 0 -47.5 0.5t-38.5 0.5h-32t-41 -0.5t-39 -0.5h-26q-1 14 -1 20.5t1 18.5l91 3q1 14 1.5 38t1 51.5l1 55t0.5 50.5h-188l-106 -182l110 -12q1 -12 1 -20.5t-1 -22.5h-52q-22 0 -45 0.5t-37 0.5h-27 t-30 -0.5t-28.5 -0.5h-21.5q-1 14 -1 22.5t1 20.5l64 9l378 613l391 -1v-35t0.5 -47.5t0.5 -46v-29.5q-14 -1 -34 -1t-32 1l-7 86q-1 14 -10.5 20t-25.5 6l-202 2q-1 -26 -1.5 -60l-1 -69.5t-0.5 -68.5v-57q39 -1 75.5 -1t75.5 1l18 91q14 1 22.5 1t22.5 -1 q-1 -57 -1 -122.5t1 -122.5q-14 -1 -22.5 -1t-22.5 1l-18 111q-40 1 -74.5 1t-76.5 -1v-61v-76.5t0.5 -76.5t1.5 -61h230q29 0 29 24zM245 276q25 -1 43 -1h35.5t37.5 0.5t49 0.5v63v34.5v50.5t-0.5 59.5t-0.5 61.5z" />
<glyph unicode="&#x152;" horiz-adv-x="1009" d="M898 178q8 0 17 0.5t17 0.5t16 -0.5t16 -0.5l-1 -178h-242h-57q-23 0 -47.5 0.5t-38.5 0.5q-18 0 -49.5 -0.5t-57.5 -0.5q-47 -12 -98 -12q-62 0 -121.5 22t-106 65t-75 106.5t-28.5 147.5q0 74 26 137.5t71.5 110.5t107.5 73.5t134 26.5q24 0 47.5 -3.5t46.5 -8.5 q31 -1 60 -1h58h350v-35t0.5 -47.5t0.5 -46v-29.5q-8 -1 -16 -1h-16h-17t-17 1l-8 97q-1 18 -21 18h-216q-1 -26 -1.5 -60l-1 -70t-0.5 -69v-57q77 -1 154 0l15 91q5 0 11.5 0.5t11.5 0.5t11 -0.5t11 -0.5q-1 -29 -1 -60v-63v-63t1 -59q-5 -1 -11 -1h-11h-11.5t-11.5 1 l-15 111q-77 1 -154 0v-61.5v-77t0.5 -77t1.5 -61.5h238q9 0 14 6t6 14zM386 36q41 0 78 4t69 22q1 29 1.5 70.5t0.5 82.5v75v49v45v65t-0.5 71t-0.5 62q-14 11 -28.5 19.5t-33.5 14t-43.5 8.5t-56.5 3q-42 0 -82.5 -18t-73 -53.5t-52.5 -89t-20 -125.5q0 -69 19 -125.5 t52 -96.5t77 -61.5t94 -21.5z" />
<glyph unicode="&#xe0;" horiz-adv-x="466" d="M35 0zM65 338q-5 14 -6.5 26.5t-1.5 23.5q0 28 14 51.5t37.5 39.5t54.5 25t65 9q45 0 74 -14.5t46 -36.5t24 -48.5t7 -51.5v-35.5t-0.5 -52.5t-0.5 -61.5v-63.5v-58v-45l79 -2q1 -11 1 -15.5t-1 -12.5q-41 -9 -74.5 -15t-78.5 -12q-5 14 -7.5 36l-4.5 39 q-23 -35 -60.5 -54.5t-72.5 -19.5q-55 0 -89.5 33t-34.5 90q0 47 25.5 75t64 43t83.5 19.5t83 4.5l2 79q-1 64 -19.5 94t-63.5 30q-46 0 -72 -19t-26 -47q0 -13 2.5 -26.5t6.5 -27.5h-56zM289 97v27.5t0.5 34.5t0.5 34.5v28.5q-27 0 -56 -3.5t-52.5 -13t-39 -26.5t-15.5 -45 q0 -14 3 -28.5t10.5 -26.5t19.5 -19.5t31 -7.5q29 0 52.5 9t45.5 36zM289 578l-195 113l40 58l169 -149z" />
<glyph unicode="&#xe7;" horiz-adv-x="457" d="M39 0zM250 457q-54 0 -86 -49t-32 -138q0 -43 9 -84t29 -72.5t51.5 -51t77.5 -19.5q25 0 51.5 8t55.5 26l14 -31q-18 -17 -42 -29q-20 -11 -49.5 -19.5t-65.5 -8.5q-103 0 -163.5 63.5t-60.5 181.5q0 67 20.5 119t55 87.5t79 54t93.5 18.5q58 0 96 -21t55 -42 q-24 -31 -55 -58q-19 18 -41 32q-19 12 -42.5 22.5t-49.5 10.5zM151 -226l13 31q9 -6 28 -13t41 -7q29 0 44 15.5t15 36.5q0 20 -19.5 37t-57.5 36l31 95h39l-18 -57q53 -19 76 -47t23 -56q0 -37 -34.5 -64.5t-98.5 -27.5q-23 0 -44.5 5t-37.5 16z" />
<glyph unicode="&#xe9;" horiz-adv-x="497" d="M39 0zM255 466q-25 0 -47.5 -12t-39 -33.5t-26.5 -52.5t-10 -69l229 5q0 31 -6 60.5t-18.5 52t-33 36t-48.5 13.5zM316 46q10 0 24.5 2t30.5 5.5t32 9t30 12.5l12 -34q-25 -15 -53 -26q-24 -10 -55.5 -18t-65.5 -8q-54 0 -97 17t-73 48.5t-46 76.5t-16 101 q0 66 17.5 118.5t48.5 88.5t73 55t91 19q58 0 95.5 -23.5t59 -58t29.5 -74.5t8 -73v-20h-329q0 -37 9.5 -76t31 -70.5t56.5 -51.5t87 -20zM188 598l170 151l40 -58l-195 -113z" />
<glyph unicode="&#xe8;" horiz-adv-x="497" d="M39 0zM255 466q-25 0 -47.5 -12t-39 -33.5t-26.5 -52.5t-10 -69l229 5q0 31 -6 60.5t-18.5 52t-33 36t-48.5 13.5zM316 46q10 0 24.5 2t30.5 5.5t32 9t30 12.5l12 -34q-25 -15 -53 -26q-24 -10 -55.5 -18t-65.5 -8q-54 0 -97 17t-73 48.5t-46 76.5t-16 101 q0 66 17.5 118.5t48.5 88.5t73 55t91 19q58 0 95.5 -23.5t59 -58t29.5 -74.5t8 -73v-20h-329q0 -37 9.5 -76t31 -70.5t56.5 -51.5t87 -20zM320 578l-195 113l40 58l169 -149z" />
<glyph unicode="&#xea;" horiz-adv-x="497" d="M39 0zM255 466q-25 0 -47.5 -12t-39 -33.5t-26.5 -52.5t-10 -69l229 5q0 31 -6 60.5t-18.5 52t-33 36t-48.5 13.5zM316 46q10 0 24.5 2t30.5 5.5t32 9t30 12.5l12 -34q-25 -15 -53 -26q-24 -10 -55.5 -18t-65.5 -8q-54 0 -97 17t-73 48.5t-46 76.5t-16 101 q0 66 17.5 118.5t48.5 88.5t73 55t91 19q58 0 95.5 -23.5t59 -58t29.5 -74.5t8 -73v-20h-329q0 -37 9.5 -76t31 -70.5t56.5 -51.5t87 -20zM413 630l-45 -51l-119 110l-128 -106l-27 31l163 139z" />
<glyph unicode="&#xeb;" horiz-adv-x="497" d="M39 0zM255 466q-25 0 -47.5 -12t-39 -33.5t-26.5 -52.5t-10 -69l229 5q0 31 -6 60.5t-18.5 52t-33 36t-48.5 13.5zM316 46q10 0 24.5 2t30.5 5.5t32 9t30 12.5l12 -34q-25 -15 -53 -26q-24 -10 -55.5 -18t-65.5 -8q-54 0 -97 17t-73 48.5t-46 76.5t-16 101 q0 66 17.5 118.5t48.5 88.5t73 55t91 19q58 0 95.5 -23.5t59 -58t29.5 -74.5t8 -73v-20h-329q0 -37 9.5 -76t31 -70.5t56.5 -51.5t87 -20zM111 635q0 29 16.5 42.5t39.5 13.5t39.5 -13.5t16.5 -42.5t-16.5 -42.5t-39.5 -13.5t-39.5 13.5t-16.5 42.5zM285 635q0 29 16.5 42.5 t39.5 13.5t39.5 -13.5t16.5 -42.5t-16.5 -42.5t-39.5 -13.5t-39.5 13.5t-16.5 42.5z" />
<glyph unicode="&#xef;" horiz-adv-x="287" d="M0 0zM34 0q-1 14 -1 19t1 17l67 3l2 54.5t1.5 56t0.5 52v42.5v45v51.5t-0.5 51.5t-1.5 45l-73 21q-1 11 -1 17.5t1 17.5q42 5 82.5 8.5t82.5 5.5q-1 -63 -1 -131v-131v-97.5t2 -108.5l68 -3q1 -11 1 -17.5t-1 -18.5h-39q-17 0 -36 0.5t-33 0.5h-29.5t-35.5 -0.5 t-33.5 -0.5h-23.5zM-3 635q0 29 16.5 42.5t39.5 13.5t39.5 -13.5t16.5 -42.5t-16.5 -42.5t-39.5 -13.5t-39.5 13.5t-16.5 42.5zM171 635q0 29 16.5 42.5t39.5 13.5t39.5 -13.5t16.5 -42.5t-16.5 -42.5t-39.5 -13.5t-39.5 13.5t-16.5 42.5z" />
<glyph unicode="&#x131;" horiz-adv-x="287" d="M34 0q-1 14 -1 19t1 17l67 3l2 54.5t1.5 56t0.5 52v42.5v45v51.5t-0.5 51.5t-1.5 45l-73 21q-1 11 -1 17.5t1 17.5q42 5 82.5 8.5t82.5 5.5q-1 -63 -1 -131v-131v-97.5t2 -108.5l68 -3q1 -11 1 -17.5t-1 -18.5h-39q-17 0 -36 0.5t-33 0.5h-29.5t-35.5 -0.5t-33.5 -0.5 h-23.5z" />
<glyph unicode="&#xf1;" horiz-adv-x="588" d="M27 0zM343 0q-1 14 -1 19t1 17l66 3q1 26 1.5 62.5l1 74t0.5 70.5v51q0 31 -2.5 56.5t-13 44.5t-31.5 29.5t-58 10.5q-10 0 -23.5 -1.5t-29 -4.5t-31.5 -7.5t-31 -10.5q-1 -43 -0.5 -85.5t0.5 -83.5v-97.5t2 -108.5l68 -3q1 -11 1 -17.5t-1 -18.5h-39q-17 0 -36 0.5 t-33 0.5h-29.5t-35.5 -0.5t-33.5 -0.5h-23.5q-1 14 -1 19t1 17l67 3l2 54.5t1.5 56t0.5 52v42.5v45v51.5t-0.5 51.5t-1.5 45l-73 21q-1 11 -1 17.5t1 17.5q42 5 82.5 8.5t82.5 5.5q-1 -17 -1 -35v-35q12 12 29.5 25.5t38 24.5t43.5 18.5t46 7.5q72 0 113 -43.5t41 -130.5 q0 -21 -0.5 -60.5t-0.5 -83.5t-0.5 -86.5t-0.5 -69.5l71 -3q1 -11 1 -17.5t-1 -18.5h-39q-17 0 -36 0.5t-33 0.5h-29.5t-35 -0.5t-33 -0.5h-23.5zM130 615q26 41 50.5 63.5t52.5 22.5q22 0 42.5 -10t39 -22t37 -22t36.5 -10q15 0 30 8.5t32 30.5l22 -18q-42 -79 -94 -79 q-17 0 -37.5 10.5t-41.5 23l-40 23t-32 10.5q-24 0 -42.5 -17t-33.5 -36z" />
<glyph unicode="&#xf4;" horiz-adv-x="544" d="M39 0zM263 -10q-53 0 -94.5 18.5t-70 51.5t-44 79t-15.5 102q0 55 16.5 104.5t47 86.5t74.5 59t99 22q52 0 94.5 -18t72.5 -50.5t46 -78.5t16 -101q0 -57 -15.5 -107t-45.5 -87.5t-75.5 -59t-105.5 -21.5zM268 38q39 0 66.5 16t45 44t25 66t7.5 82q0 47 -10 87t-28 69 t-44 45t-59 16q-38 0 -64.5 -15.5t-43 -43t-24 -65t-7.5 -80.5q0 -42 9 -82t26.5 -71t42.5 -49.5t58 -18.5zM427 630l-45 -51l-119 110l-128 -106l-27 31l163 139z" />
<glyph unicode="&#xf6;" horiz-adv-x="544" d="M39 0zM263 -10q-53 0 -94.5 18.5t-70 51.5t-44 79t-15.5 102q0 55 16.5 104.5t47 86.5t74.5 59t99 22q52 0 94.5 -18t72.5 -50.5t46 -78.5t16 -101q0 -57 -15.5 -107t-45.5 -87.5t-75.5 -59t-105.5 -21.5zM268 38q39 0 66.5 16t45 44t25 66t7.5 82q0 47 -10 87t-28 69 t-44 45t-59 16q-38 0 -64.5 -15.5t-43 -43t-24 -65t-7.5 -80.5q0 -42 9 -82t26.5 -71t42.5 -49.5t58 -18.5zM129 635q0 29 16.5 42.5t39.5 13.5t39.5 -13.5t16.5 -42.5t-16.5 -42.5t-39.5 -13.5t-39.5 13.5t-16.5 42.5zM303 635q0 29 16.5 42.5t39.5 13.5t39.5 -13.5 t16.5 -42.5t-16.5 -42.5t-39.5 -13.5t-39.5 13.5t-16.5 42.5z" />
<glyph unicode="&#xe6;" horiz-adv-x="742" d="M516 -11q-69 0 -119 27t-79 76q-14 -20 -29 -38t-34 -32.5t-42.5 -23t-54.5 -8.5q-55 0 -89.5 33t-34.5 90q0 46 24.5 74t62 43t81.5 20t82 5q1 15 3 32t5 48q-1 64 -21 94t-75 30q-40 0 -62.5 -19t-22.5 -47q0 -13 2.5 -26.5t6.5 -27.5h-56q-5 14 -6.5 26.5t-1.5 23.5 q0 28 14 51.5t37.5 39.5t54.5 25t65 9q52 0 83 -19t47 -47q30 32 70 49t87 17q61 0 98.5 -26.5t58.5 -64.5t28 -81.5t7 -76.5v-20h-329q1 -34 10.5 -69.5t30.5 -64t56 -47t87 -18.5q10 0 24.5 2t30.5 5.5t32 9t30 12.5l12 -34q-25 -15 -53 -26q-24 -10 -55.5 -18t-65.5 -8z M190 52q38 0 65.5 21.5t48.5 46.5q-19 46 -20 102q-27 0 -55 -4t-51 -13.5t-37.5 -26.5t-14.5 -44q0 -14 3 -28.5t10.5 -26.5t19.5 -19.5t31 -7.5zM606 285q0 31 -4.5 63.5t-16 59t-32 43t-53.5 16.5q-24 0 -45.5 -12t-38.5 -35.5t-27.5 -58.5t-11.5 -81z" />
<glyph unicode="&#x153;" horiz-adv-x="870" d="M644 -11q-66 0 -114.5 23.5t-77.5 68.5q-30 -42 -77 -66.5t-112 -24.5q-53 0 -94.5 18.5t-70 51.5t-44 79t-15.5 102q0 55 16.5 104.5t47 86.5t74.5 59t99 22q61 0 108.5 -24.5t77.5 -69.5q31 46 77 70.5t103 24.5q61 0 98.5 -26.5t58.5 -64.5t28 -81.5t7 -76.5v-20h-329 q1 -34 10.5 -69.5t30.5 -64t56 -47t87 -18.5q10 0 24.5 2t30.5 5.5t32 9t30 12.5l12 -34q-25 -15 -53 -26q-24 -10 -55.5 -18t-65.5 -8zM268 38q38 0 65.5 15.5t45 43t25.5 65.5t8 84q0 47 -10 87t-28 69t-44 45t-59 16q-38 0 -64.5 -15.5t-43 -43t-24 -65t-7.5 -80.5 q0 -42 9 -82t26.5 -71t42.5 -49.5t58 -18.5zM734 285q0 31 -4.5 63.5t-16 59t-32 43t-53.5 16.5q-51 0 -86 -50.5t-37 -136.5z" />
<glyph unicode="," horiz-adv-x="248" d="M14 -158q24 5 45.5 18t38.5 32t27 43.5t10 53.5h-18.5t-17.5 1q-23 4 -33 20.5t-10 42.5q0 27 18 44t46 17q14 0 27.5 -5.5t24 -18t16.5 -32.5t6 -48q0 -47 -17 -82t-42 -60t-54.5 -39.5t-53.5 -19.5z" />
<glyph unicode="." horiz-adv-x="241" d="M56 54q0 35 21 50t48 15q28 0 44 -18t16 -47q0 -34 -20.5 -49t-48.5 -15q-27 0 -43.5 16t-16.5 48z" />
<glyph unicode=":" horiz-adv-x="251" d="M61 54q0 35 21 50t48 15q28 0 44 -18t16 -47q0 -34 -20.5 -49t-48.5 -15q-27 0 -43.5 16t-16.5 48zM61 396q0 35 21 50t48 15q28 0 44 -18t16 -47q0 -34 -20.5 -49t-48.5 -15q-27 0 -43.5 16t-16.5 48z" />
<glyph unicode=";" horiz-adv-x="276" d="M30 -158q24 5 45.5 18t38.5 32t27 43.5t10 53.5h-18.5t-17.5 1q-23 4 -33 20.5t-10 42.5q0 27 18 44t46 17q14 0 27.5 -5.5t24 -18t16.5 -32.5t6 -48q0 -47 -17 -82t-42 -60t-54.5 -39.5t-53.5 -19.5zM72 396q0 35 21 50t48 15q28 0 44 -18t16 -47q0 -34 -20.5 -49 t-48.5 -15q-27 0 -43.5 16t-16.5 48z" />
<glyph unicode="?" horiz-adv-x="423" d="M304 519q0 38 -30.5 61.5t-75.5 23.5q-42 0 -80.5 -10.5t-64.5 -25.5l-19 24q39 35 82.5 53t100.5 18q33 0 64.5 -8.5t56 -26t39 -44.5t14.5 -65q0 -32 -16.5 -57.5t-41.5 -47t-54 -39.5t-54 -36.5t-41.5 -37.5t-16.5 -41q0 -13 2.5 -27t11.5 -30l-34 -11q-17 30 -25 49 t-8 38q0 31 14 54t35 42.5t46 35.5t46 32.5t35 34.5t14 41zM119 58q0 27 19.5 43.5t46.5 16.5t42.5 -18.5t15.5 -45.5t-17.5 -43.5t-48.5 -16.5q-32 0 -45 18.5t-13 45.5z" />
<glyph unicode="&#xbf;" horiz-adv-x="418" d="M117 -12q0 -38 30.5 -61.5t75.5 -23.5q42 0 80.5 10.5t64.5 25.5l19 -24q-39 -35 -82.5 -53t-100.5 -18q-33 0 -64.5 8.5t-56 26t-39 44.5t-14.5 65q0 32 16.5 57.5t41.5 47t54 39.5t54 36.5t41.5 37t16.5 41.5q0 13 -2.5 27t-11.5 30l34 11q17 -30 25 -49t8 -38 q0 -30 -14 -53.5t-35 -43t-46 -35.5t-46 -32.5t-35 -35t-14 -40.5zM302 449q0 -27 -19.5 -43.5t-46.5 -16.5t-42.5 18.5t-15.5 45.5t17.5 43.5t48.5 16.5q32 0 45 -18.5t13 -45.5z" />
<glyph unicode="!" horiz-adv-x="260" d="M69 57q0 27 19.5 43.5t46.5 16.5t42.5 -18.5t15.5 -45.5t-17.5 -43.5t-48.5 -16.5q-32 0 -45 18.5t-13 45.5zM119 218l-40 445l51 8l51 -8l-40 -445h-22z" />
<glyph unicode="&#xa1;" horiz-adv-x="244" d="M183 448q0 -27 -19.5 -43.5t-46.5 -16.5t-42.5 18.5t-15.5 45.5t17.5 43.5t48.5 16.5q32 0 45 -18.5t13 -45.5zM133 287l40 -445l-51 -8l-51 8l40 445h22z" />
<glyph unicode="-" horiz-adv-x="365" d="M62 277q0 16 2.5 33.5t7.5 33.5h232q0 -16 -2.5 -33.5t-7.5 -33.5h-232z" />
<glyph unicode="&#x2013;" horiz-adv-x="537" d="M50 292h440v-51h-440v51z" />
<glyph unicode="&#x2014;" horiz-adv-x="1037" d="M50 292h940v-51h-940v51z" />
<glyph unicode="_" horiz-adv-x="622" d="M61 -52h500v-38h-500v38z" />
<glyph unicode="@" horiz-adv-x="753" d="M487 24q23 0 47 16.5t43.5 46.5t32 71.5t12.5 90.5q0 34 -11.5 72t-38.5 70.5t-70 54t-106 21.5q-59 0 -109.5 -22t-87 -62t-57 -96.5t-20.5 -125.5q0 -50 12 -100t41 -90.5t78 -66t123 -25.5q54 0 111 14.5t105 46.5l17 -29q-48 -31 -109.5 -55t-125.5 -24 q-72 0 -133.5 23t-106.5 65.5t-70.5 104.5t-25.5 140q0 70 29.5 133.5t79 112t114.5 77t137 28.5q82 0 140.5 -24t96.5 -61.5t56 -85t18 -93.5q0 -53 -23.5 -100t-60.5 -82.5t-82.5 -56.5t-88.5 -21q-17 0 -25.5 7.5t-12.5 19.5t-3 26.5t4 27.5l21 110q-32 -87 -69 -138.5 t-91 -51.5q-36 0 -54.5 31.5t-18.5 76.5q0 40 12.5 85t37 83t60.5 62.5t83 24.5q24 0 53 -4t49 -9l26 5l-52 -269q-4 -20 -2.5 -37.5t15.5 -17.5zM309 45q22 0 44 23.5t42 61t36.5 83.5t27.5 90q-17 11 -33 15t-30 4q-35 0 -59 -18.5t-39 -47t-21.5 -62.5t-6.5 -65 q0 -35 9 -59.5t30 -24.5z" />
<glyph unicode="&#x26;" horiz-adv-x="757" d="M566 -18q-40 0 -84 22.5t-89 65.5q-24 -21 -45 -37t-43 -26.5t-46 -15.5t-54 -5q-37 0 -69.5 9.5t-57 29t-38.5 49.5t-14 72q0 29 9.5 56.5t30.5 52t55 47t83 41.5q-10 25 -16.5 54t-6.5 54q0 45 14.5 86t41 72.5t64.5 50t86 18.5q24 0 45.5 -8.5t38 -23.5t26 -35.5 t9.5 -45.5q0 -36 -21.5 -69t-53.5 -60.5t-68.5 -49t-67.5 -34.5q27 -55 57 -102.5t75 -93.5q14 15 35 45t41.5 65.5t37 71.5t22.5 62q24 2 48 1.5t48 -4.5q-6 -18 -28.5 -52.5t-52.5 -73t-62.5 -76t-59.5 -61.5q42 -35 77.5 -53.5t70.5 -18.5q56 0 120 57q8 -5 12.5 -9.5 t9.5 -10.5q-41 -57 -85.5 -87t-94.5 -30zM248 57q30 0 62 9.5t55 27.5q-51 51 -87 104.5t-62 114.5q-53 -23 -76.5 -59.5t-23.5 -78.5q0 -29 11 -51t29.5 -37t42 -22.5t49.5 -7.5zM286 380q19 9 41.5 24t42 36t32.5 47t13 56q0 34 -17 53t-40 19q-27 0 -45 -9.5t-29 -26 t-15.5 -38t-4.5 -44.5q0 -28 6.5 -60.5t15.5 -56.5z" />
<glyph unicode="/" horiz-adv-x="399" d="M29 -31l304 760l37 -12l-303 -764z" />
<glyph unicode="\" horiz-adv-x="399" d="M332 -47l-303 764l37 12l304 -760z" />
<glyph unicode="|" horiz-adv-x="217" d="M85 -47v784h47v-784h-47z" />
<glyph unicode="(" horiz-adv-x="299" d="M256 719l27 -31q-42 -47 -76.5 -99.5t-59 -109.5t-38 -117t-13.5 -120t14 -118t39 -113.5t59 -106t74 -95.5l-26 -29q-56 43 -97 96t-68.5 112t-41 122t-13.5 128q0 66 14 131.5t41.5 127.5t69 118.5t95.5 103.5z" />
<glyph unicode=")" horiz-adv-x="299" d="M43 719q54 -47 95.5 -103.5t69 -118.5t41.5 -127.5t14 -131.5q0 -65 -13.5 -128t-41 -122t-69 -112t-96.5 -96l-26 29q40 45 74 95.5t59 106t39 113.5t14 118t-13.5 120t-38 117t-59 109.5t-76.5 99.5l27 31v0z" />
<glyph unicode="[" horiz-adv-x="312" d="M83 717h205v-42h-133v-844h133v-42h-205v928z" />
<glyph unicode="]" horiz-adv-x="312" d="M229 -211h-205v42h133v844h-133v42h205v-928z" />
<glyph unicode="{" horiz-adv-x="308" d="M245 -209q-44 0 -72.5 11.5t-45 31t-22.5 46.5t-6 57q0 51 10 105t10 99q0 19 -3 36.5t-11.5 31t-22.5 21t-35 7.5h-31v35h31q21 0 35 8t22.5 21.5t11.5 31.5t3 38q0 42 -8 92.5t-8 98.5q0 31 6 59.5t23 49.5t47 33.5t78 12.5h27v-37h-17q-28 0 -46 -9.5t-28.5 -24.5 t-14.5 -34.5t-4 -40.5q0 -45 6 -97.5t6 -100.5q0 -23 -2.5 -42.5t-11.5 -35.5t-26 -26.5t-45 -14.5q28 -4 45 -14.5t26 -26t11.5 -34.5t2.5 -41q0 -48 -7 -103t-7 -100q0 -20 4.5 -39.5t15 -34.5t29 -24t46.5 -9h17v-37h-39z" />
<glyph unicode="}" horiz-adv-x="309" d="M25 -209v37h17q28 0 46.5 9t29 24t15 34.5t4.5 39.5q0 45 -7 100t-7 103q0 22 2.5 41t11.5 34.5t26 26t45 14.5q-28 4 -45 14.5t-26 26.5t-11.5 35.5t-2.5 42.5q0 48 6 100.5t6 97.5q0 21 -4 40.5t-14.5 34.5t-28.5 24.5t-46 9.5h-17v37h27q48 0 78 -12.5t47 -33.5 t23 -49.5t6 -59.5q0 -48 -8 -98.5t-8 -92.5q0 -20 3 -38t11.5 -31.5t22.5 -21.5t35 -8h31v-35h-31q-21 0 -35 -7.5t-22.5 -21t-11.5 -31t-3 -36.5q0 -45 10 -99t10 -105q0 -30 -6 -57t-22.5 -46.5t-45 -31t-72.5 -11.5h-39z" />
<glyph unicode="&#xa7;" horiz-adv-x="521" d="M202 -190q32 4 53 23.5t21 50.5q0 20 -17.5 57t-43.5 81.5l-56 93l-56 92.5t-43.5 80t-17.5 56q0 42 26.5 77.5t70 62t99 41t114.5 14.5q22 0 44.5 -2.5t45.5 -7.5l22 2l4 -128l-63 -4l-13 92q-14 6 -30 9.5t-36 3.5q-37 0 -56 -17.5t-19 -44.5q0 -28 17.5 -66.5 t43.5 -81.5t56.5 -88.5l56.5 -87t43.5 -77.5t17.5 -60q0 -55 -33.5 -94t-83.5 -64.5t-107 -37.5t-104 -12q-44 0 -91 11l-21 -2l-4 128l62 4l14 -91q42 -17 84 -13zM417 -40q0 19 -17 55t-43 80.5l-56 93.5l-56 94t-43 81.5t-17 55.5q0 14 3.5 27.5t8.5 25.5 q-42 -18 -64 -45.5t-22 -61.5q2 -18 19 -52t42 -77l53.5 -90l53.5 -91t42.5 -82t19.5 -61q0 -27 -3 -43t-8 -29q42 20 64.5 48.5t22.5 70.5z" />
<glyph unicode="&#x2022;" horiz-adv-x="379" d="M189 141q-24 0 -45 9t-36 24.5t-23.5 36.5t-8.5 45t8.5 45.5t23.5 37.5t36 25t45 9t45 -9t36 -25t24 -37.5t9 -45.5t-9 -45t-24 -36.5t-36 -24.5t-45 -9z" />
<glyph unicode="#" horiz-adv-x="594" d="M158 154h-123l9 45h122l26 138h-126l9 44h123l30 157h50l-29 -157h138l27 157h50l-27 -157h124l-8 -41h-124l-27 -141h124l-7 -42h-124l-29 -157h-49l29 155h-137l-27 -155h-52zM354 199l26 139h-138l-24 -139h136z" />
<glyph unicode="%" horiz-adv-x="602" d="M69 38l455 471l18 -17l-456 -470zM156 285q-48 0 -82 32t-34 89q0 29 9.5 53.5t26 42.5t38.5 28t48 10q25 0 46.5 -8t37.5 -24t25.5 -38.5t9.5 -50.5q0 -60 -34 -97t-91 -37zM158 309q37 0 52 28.5t15 71.5q0 46 -17.5 76t-47.5 30q-32 0 -48 -27t-16 -72q0 -20 4 -39 t12 -34t19.5 -24.5t26.5 -9.5zM440 -14q-48 0 -82 32.5t-34 89.5q0 28 9.5 52.5t26 42.5t38.5 28t48 10q50 0 84.5 -31.5t34.5 -88.5q0 -60 -34 -97.5t-91 -37.5zM442 10q37 0 52 29t15 72q0 45 -17.5 75t-47.5 30q-32 0 -48 -27t-16 -72q0 -20 4 -39t12 -34t19.5 -24.5 t26.5 -9.5z" />
<glyph unicode="&#x2030;" horiz-adv-x="869" d="M713 -14q-48 0 -82 32.5t-34 89.5q0 28 9.5 52.5t26 42.5t38.5 28t48 10q50 0 84.5 -31.5t34.5 -88.5q0 -60 -34 -97.5t-91 -37.5zM715 10q37 0 52 29t15 72q0 45 -17.5 75t-47.5 30q-32 0 -48 -27t-16 -72q0 -20 4 -39t12 -34t19.5 -24.5t26.5 -9.5zM158 285 q-48 0 -82 32t-34 89q0 29 9.5 53.5t26 42.5t38.5 28t48 10q25 0 46.5 -8t37.5 -24t25.5 -38.5t9.5 -50.5q0 -60 -34 -97t-91 -37zM71 38l455 471l18 -17l-456 -470zM160 309q37 0 52 28.5t15 71.5q0 46 -17.5 76t-47.5 30q-32 0 -48 -27t-16 -72q0 -20 4 -39t12 -34 t19.5 -24.5t26.5 -9.5zM442 -14q-48 0 -82 32.5t-34 89.5q0 28 9.5 52.5t26 42.5t38.5 28t48 10q50 0 84.5 -31.5t34.5 -88.5q0 -60 -34 -97.5t-91 -37.5zM444 10q37 0 52 29t15 72q0 45 -17.5 75t-47.5 30q-32 0 -48 -27t-16 -72q0 -20 4 -39t12 -34t19.5 -24.5t26.5 -9.5z " />
<glyph unicode="&#x2020;" horiz-adv-x="434" d="M181 -77l28 464l-178 24v15l177 25l-27 214h75l-28 -214l175 -25v-15l-176 -23l29 -465h-75z" />
<glyph unicode="'" horiz-adv-x="198" d="M85 396l-36 261l50 6l50 -6l-36 -261h-28z" />
<glyph unicode="&#x22;" horiz-adv-x="371" d="M85 396l-36 261l50 6l50 -6l-36 -261h-28zM258 396l-36 261l50 6l50 -6l-36 -261h-28z" />
<glyph unicode="&#x201c;" horiz-adv-x="461" d="M223 712q-18 -5 -37 -12.5t-35 -21t-26 -35.5t-10 -56q31 0 50 -17t19 -46q0 -26 -18 -43t-46 -17q-37 0 -55 18.5t-18 73.5q0 46 16.5 79t41.5 55.5t53.5 35.5t52.5 18zM428 712q-18 -5 -37.5 -12.5t-35 -21t-26 -35.5t-10.5 -56q32 0 50 -17t18 -46q0 -26 -18 -43 t-46 -17q-35 0 -53 18.5t-18 73.5q0 46 16.5 79t41 55.5t53 35.5t52.5 18z" />
<glyph unicode="&#x201d;" horiz-adv-x="466" d="M249 496q18 5 37 13t35 22t26 35.5t10 54.5q-31 0 -50 17t-19 46q0 26 18.5 43t45.5 17q37 0 55 -18.5t18 -73.5q0 -46 -16.5 -79t-41.5 -55.5t-53.5 -35.5t-52.5 -18zM44 496q18 5 37.5 13t35.5 22t26 35.5t10 54.5q-32 0 -50 17t-18 46q0 26 18 43t46 17q35 0 53 -18.5 t18 -73.5q0 -46 -16.5 -79t-41 -55.5t-53 -35.5t-52.5 -18z" />
<glyph unicode="&#x2018;" horiz-adv-x="256" d="M223 712q-18 -5 -37.5 -12.5t-35 -21t-26 -35.5t-10.5 -56q32 0 50.5 -17t18.5 -46q0 -26 -18.5 -43t-45.5 -17q-36 0 -54 18.5t-18 73.5q0 46 16.5 79t41.5 55.5t53.5 35.5t52.5 18z" />
<glyph unicode="&#x2019;" horiz-adv-x="261" d="M44 496q18 5 37.5 13t35 22t26 35.5t10.5 54.5q-32 0 -50.5 17t-18.5 46q0 26 18.5 43t45.5 17q36 0 54 -18.5t18 -73.5q0 -46 -16.5 -79t-41.5 -55.5t-53.5 -35.5t-52.5 -18z" />
<glyph unicode="&#x2039;" horiz-adv-x="281" d="M190 23l-148 246l148 240h38l-87 -240l87 -246h-38z" />
<glyph unicode="&#x203a;" horiz-adv-x="281" d="M53 23l87 246l-87 240h38l148 -240l-148 -246h-38z" />
<glyph unicode="&#xab;" horiz-adv-x="462" d="M190 23l-148 246l148 240h38l-87 -240l87 -246h-38zM371 23l-148 246l148 240h38l-87 -240l87 -246h-38z" />
<glyph unicode="&#xbb;" horiz-adv-x="462" d="M234 23l87 246l-87 240h38l148 -240l-148 -246h-38zM53 23l87 246l-87 240h38l148 -240l-148 -246h-38z" />
<glyph unicode="*" horiz-adv-x="426" d="M194 486l-111 -91l-32 51l126 59l-126 60l32 51l116 -87l-5 136h54l-21 -137l114 88l32 -49l-134 -62l134 -61l-32 -49l-118 89l5 -140h-54z" />
<glyph unicode="+" horiz-adv-x="508" d="M226 253h-183v53h183v183h57v-183h182v-53h-182v-186h-57v186z" />
<glyph unicode="&#x3c;" horiz-adv-x="444" d="M32 290v13l324 271l34 -41l-286 -235l286 -238l-34 -41z" />
<glyph unicode="=" horiz-adv-x="514" d="M66 157v54h382v-54h-382zM66 357v54h382v-54h-382z" />
<glyph unicode="&#x3e;" horiz-adv-x="444" d="M88 19l-34 41l286 238l-286 235l34 41l324 -271v-13z" />
<glyph unicode="&#xb4;" d="M152 598l170 151l40 -58l-195 -113z" />
<glyph unicode="`" d="M333 578l-195 113l40 58l169 -149z" />
<glyph unicode="&#x2c6;" d="M409 630l-45 -51l-119 110l-128 -106l-27 31l163 139z" />
<glyph unicode="&#xa8;" d="M107 635q0 29 16.5 42.5t39.5 13.5t39.5 -13.5t16.5 -42.5t-16.5 -42.5t-39.5 -13.5t-39.5 13.5t-16.5 42.5zM281 635q0 29 16.5 42.5t39.5 13.5t39.5 -13.5t16.5 -42.5t-16.5 -42.5t-39.5 -13.5t-39.5 13.5t-16.5 42.5z" />
<glyph unicode="&#x2dc;" d="M91 615q26 41 50.5 63.5t52.5 22.5q22 0 42.5 -10t39 -22t37 -22t36.5 -10q15 0 30 8.5t32 30.5l22 -18q-42 -79 -94 -79q-17 0 -37.5 10.5t-41.5 23l-40 23t-32 10.5q-24 0 -42.5 -17t-33.5 -36z" />
<glyph unicode="&#xb8;" d="M142 -225l13 31q9 -6 28 -13t41 -7q29 0 44 15.5t15 36.5q0 20 -19.5 37t-57.5 36l31 95h39l-18 -57q53 -19 76 -47t23 -56q0 -37 -34.5 -64.5t-98.5 -27.5q-23 0 -44.5 5t-37.5 16z" />
<glyph unicode="&#xf6c9;" d="M146 753l205 111l31 -64l-225 -73z" />
<glyph unicode="&#xf144;" d="M421 765l-36 -54l-149 95l-140 -95l-24 29l178 135z" />
<glyph unicode="&#xf6cb;" d="M97 784q0 29 16.5 42.5t39.5 13.5t39.5 -13.5t16.5 -42.5t-16.5 -42.5t-39.5 -13.5t-39.5 13.5t-16.5 42.5zM291 784q0 29 16.5 42.5t39.5 13.5t39.5 -13.5t16.5 -42.5t-16.5 -42.5t-39.5 -13.5t-39.5 13.5t-16.5 42.5z" />
<glyph unicode="&#xf6ce;" d="M342 727l-225 73l31 64l204 -111z" />
<glyph unicode="&#xf146;" d="M97 754q23 38 45 58.5t48 20.5q23 0 43.5 -9t38.5 -20l33 -20t29 -9q13 0 28 5.5t33 30.5l20 -13q-17 -38 -39.5 -55.5t-47.5 -17.5q-16 0 -35 9t-37.5 20t-35.5 20t-30 9q-23 0 -40.5 -14t-31.5 -31z" />
<glyph unicode="&#x2122;" horiz-adv-x="988" d="M927 640l-52 -2q-1 -44 -1 -90v-89q0 -42 0.5 -83.5t0.5 -83.5l51 -2q1 -8 1 -11.5t-1 -11.5h-25q-11 0 -22.5 0.5t-20.5 0.5h-20.5t-28 -0.5t-27 -0.5h-17.5q-1 8 -1 11.5t1 11.5l49 2l6 321l-153 -352h-26l-144 322q-1 -37 -1 -75v-75v-67.5t1 -66.5l67 -9 q1 -8 1 -11.5t-1 -11.5h-25q-11 0 -22.5 0.5t-19.5 0.5h-20.5t-26 -0.5t-25 -0.5h-16.5v23l53 9l6 334l-62 8v24q29 -1 60 -1t60 1l144 -324l141 324q32 -1 58.5 -1t57.5 1v-25zM287 267q-17 0 -35 0.5t-26 0.5h-21.5t-30 -0.5t-28.5 -0.5h-18q-1 8 -1 11.5t1 11.5l70 3 q1 15 1.5 41t0.5 52.5v49.5v34v35v48.5t-0.5 49.5t-0.5 37l-82 -2q-8 0 -9 -9l-4 -76q-8 -1 -17.5 -1t-17.5 1v115l42 -3h237l42 3v-115q-19 -2 -35 0l-5 78q0 7 -8 7l-84 1q-1 -18 -1.5 -41.5t-0.5 -47v-44.5v-34v-37v-50t0.5 -51t0.5 -41l74 -3v-23h-44z" />
<glyph unicode="&#xae;" horiz-adv-x="763" d="M381 -8q-69 0 -130.5 26.5t-107 72t-72 107t-26.5 130.5q0 70 26.5 131t72 107t107 72.5t130.5 26.5q70 0 131 -26.5t107 -72.5t72.5 -107t26.5 -131q0 -69 -26.5 -130.5t-72.5 -107t-107 -72t-131 -26.5zM381 22q62 0 117 24.5t95.5 66.5t64 97.5t23.5 117.5t-23.5 118 t-64 98t-95.5 66.5t-117 24.5t-116.5 -24.5t-95 -66.5t-64 -98t-23.5 -118t23.5 -117.5t64 -97.5t95 -66.5t116.5 -24.5zM324 164l61 -3v-23h-37q-15 0 -31 0.5t-24 0.5h-21.5t-27.5 -0.5t-26.5 -0.5h-17.5q-1 8 -1 11.5t1 11.5l54 2q1 15 1.5 41l1 53t0.5 50v34v36v50 t-0.5 50t-0.5 36l-55 1q-1 8 -1 11.5t1 11.5h174q37 0 64.5 -9.5t45 -24.5t26 -34.5t8.5 -39.5q0 -32 -12.5 -52.5t-26.5 -31.5q-18 -14 -39 -20l22.5 -35.5l17 -25l14 -19.5l15.5 -21q17 -25 40.5 -48t48.5 -26q0 -5 -5.5 -11t-7.5 -11q-38 -3 -65 6.5t-45 29.5 q-12 14 -22.5 27.5t-21.5 30l-24 37l-31 49.5l-54 2v-36v-40t0.5 -38.5t0.5 -31.5zM323 335l34 -2q50 0 71.5 25t21.5 65q0 36 -21 61.5t-66 25.5h-40v-175z" />
<glyph unicode="&#xa9;" horiz-adv-x="631" d="M315 -14q-56 0 -105.5 21.5t-86.5 58.5t-58.5 86.5t-21.5 105.5t21.5 106t58.5 87t86.5 58.5t105.5 21.5t106 -21.5t87 -58.5t58.5 -87t21.5 -106t-21.5 -105.5t-58.5 -86.5t-87 -58.5t-106 -21.5zM315 16q49 0 92.5 19.5t75.5 52.5t51 77t19 93t-19 93t-51 77.5 t-75.5 53t-92.5 19.5t-92 -19.5t-75.5 -53t-51 -77.5t-18.5 -93t18.5 -93t51 -77t75.5 -52.5t92 -19.5zM393 375q-1 13 -13 16q-18 6 -50 6q-24 0 -46 -7.5t-39.5 -24t-28 -42.5t-10.5 -63q0 -39 11.5 -67t29.5 -45.5t39 -25.5t40 -8q15 0 28 1t26 5q6 1 9.5 3t3.5 11l10 60 h33q0 -4 -1 -16.5t-2 -27l-2 -28t-1 -19.5l-9 1q-17 -2 -44.5 -8t-50.5 -6q-38 0 -70.5 11t-56.5 32t-37.5 50.5t-13.5 66.5q0 39 14 70.5t39 54t58 34.5t72 12q23 0 47.5 -4.5t40.5 -6.5h11v-83h-32z" />
<glyph unicode="&#x20ac;" horiz-adv-x="529" d="M181 183q9 -41 27 -70.5t41.5 -48.5t50 -27.5t52.5 -8.5t52.5 3.5t65.5 19.5l12 -36q-32 -11 -61 -19t-69 -8q-109 0 -169.5 51.5t-76.5 143.5h-68v37h63q-1 8 -1 16.5v17.5q0 15 1 29.5t3 28.5h-64v35h70q22 89 87 140.5t171 51.5q28 0 60.5 -8t55.5 -20l-14 -35 q-18 8 -47 16t-56 8q-33 0 -62.5 -8.5t-54.5 -27.5t-43 -48t-27 -69h166v-35h-172q-2 -11 -2 -21.5v-21.5v-26t2 -23h170v-37h-163z" />
<glyph unicode="$" horiz-adv-x="439" d="M208 -96v82h-10q-25 0 -39 2.5t-26 5.5t-25.5 5.5t-37.5 2.5l-11 -1v31.5t-0.5 45t-0.5 43.5v26h42l9 -107q19 -10 44 -16t53 -6h2v216l-5 3q-35 20 -62 37.5t-45 37t-27.5 41.5t-9.5 51q0 28 11.5 52t31.5 42t47 29.5t59 14.5v76h34v-75q18 -1 32.5 -3.5t27 -5.5 l25.5 -6t28 -4l20 2v-145h-34l-9 102q-25 14 -47.5 19.5t-42.5 6.5v-200q1 -1 2 -1l68.5 -43.5t46.5 -35t26 -37.5t8 -51t-11.5 -56.5t-32 -45t-48 -32t-59.5 -17.5v-86h-34zM317 110q0 16 -4 28.5t-13 24t-23 23t-35 25.5v-188q30 8 52.5 30t22.5 57zM132 428 q0 -14 3 -24.5t11.5 -21.5t23 -23t38.5 -28v178q-31 -5 -53.5 -24t-22.5 -57z" />
<glyph unicode="&#xa2;" horiz-adv-x="479" d="M253 -89v79q-97 5 -152.5 68t-55.5 176q0 60 16.5 108t45 83t66.5 56.5t80 28.5v82h35v-79h5q58 0 96 -21t55 -42q-24 -31 -55 -58q-14 14 -30 25q-14 10 -32.5 20t-38.5 15v-408q4 -1 8 -1h9q25 0 51.5 8t55.5 26l14 -31q-16 -14 -37 -25q-18 -10 -43.5 -19.5 t-57.5 -11.5v-79h-35zM138 270q0 -36 6.5 -71t20 -64.5t35.5 -52t53 -32.5v407q-54 -2 -84.5 -50.5t-30.5 -136.5z" />
<glyph unicode="&#xa3;" horiz-adv-x="497" d="M51 243v39h62q1 54 8 101t26 82t52 55t86 20q52 0 82 -17t44 -34q-9 -9 -16 -15t-20 -16q-13 9 -28 17q-13 7 -30 12.5t-36 5.5q-32 0 -49.5 -15t-25.5 -39.5t-10 -56t-2 -64.5v-36h166v-39h-166v-27q0 -60 -17 -102t-45 -59l169 8q31 0 53.5 4t38.5 10.5t27.5 14.5 t19.5 17l26 -38q-7 -9 -19 -21t-31.5 -23t-48.5 -19t-69 -8h-257v38q42 3 56.5 53t15.5 152h-62z" />
<glyph unicode="&#xa5;" horiz-adv-x="687" d="M215 480l154 -272l143 271l-98 4q-1 12 -1 18t1 20q26 -1 52 -1h82h27t30 0.5t28.5 0.5h21.5q1 -14 1 -20t-1 -18l-88 -4l-87 -160h108v-44h-131l-57 -106h188v-44h-190v-58.5t2 -69.5h-99q2 44 3 71.5t1 56.5h-210v44h196l-62 106h-134v44h108l-93 161l-78 3 q-1 12 -1 18t1 20q22 -1 42 -1h71h32t41 0.5t39.5 0.5h26.5q1 -14 1 -20t-1 -18z" />
<glyph unicode="&#xa4;" horiz-adv-x="526" d="M52 122l74 72q-18 20 -26.5 47t-8.5 57q0 29 11 57t28 48l-73 74l31 28l72 -73q26 20 50 27.5t52 7.5t54 -8t50 -26l71 72l29 -29l-71 -73q17 -17 28 -46.5t11 -58.5q0 -30 -12.5 -59t-29.5 -49l73 -73l-30 -28l-73 73q-23 -16 -48 -24.5t-52 -8.5q-28 0 -55.5 9 t-50.5 26l-72 -72zM262 192q54 0 80 30.5t26 75.5q0 44 -26.5 75.5t-79.5 31.5q-52 0 -79.5 -31t-27.5 -76t28 -75.5t79 -30.5z" />
<glyph horiz-adv-x="287" d="M0 0z" />
</font>
</defs>
</svg>
